<?xml version="1.0" standalone="no"?>
<!DOCTYPE svg PUBLIC "-//W3C//DTD SVG 20010904//EN"
 "http://www.w3.org/TR/2001/REC-SVG-20010904/DTD/svg10.dtd">
<svg version="1.0" xmlns="http://www.w3.org/2000/svg"
 width="260.000000pt" height="260.000000pt" viewBox="0 0 260.000000 260.000000"
 preserveAspectRatio="xMidYMid meet">
<metadata>
Created by potrace 1.11, written by Peter Selinger 2001-2013
</metadata>
<g transform="translate(0.000000,260.000000) scale(0.100000,-0.100000)"
fill="#000000" stroke="none">
<path d="M0 1300 l0 -1300 1300 0 1300 0 0 1300 0 1300 -1300 0 -1300 0 0
-1300z m2007 800 c49 -29 63 -66 63 -163 0 -68 -3 -86 -16 -91 -9 -3 -54 -6
-100 -6 l-84 0 0 -65 c0 -62 1 -65 19 -55 37 19 72 11 107 -24 26 -26 34 -42
34 -71 0 -49 -11 -67 -92 -154 l-68 -73 0 -390 c0 -249 -4 -405 -11 -433 -6
-24 -24 -55 -41 -72 l-29 -28 -582 -3 c-651 -3 -631 -5 -669 68 -21 41 -26
178 -6 198 7 7 39 12 75 12 l63 0 0 613 c0 336 4 629 9 650 10 41 43 84 76 97
11 5 290 9 620 9 578 1 601 0 632 -19z"/>
<path d="M750 2038 c-20 -21 -20 -32 -20 -655 l0 -633 453 0 c339 0 456 -3
465 -12 7 -7 12 -41 12 -84 0 -57 4 -77 21 -98 27 -34 77 -36 107 -3 22 23 22
25 20 400 l-3 377 -190 -204 -190 -204 -80 -32 c-145 -57 -154 -49 -102 98
l32 92 265 281 265 282 5 191 c3 105 9 199 14 209 8 16 -21 17 -523 17 l-530
0 -21 -22z m178 -55 c3 -23 -8 -28 -68 -35 -22 -3 -25 -8 -28 -48 -3 -46 -15
-62 -39 -53 -9 3 -13 23 -13 60 0 44 4 58 25 79 21 21 33 25 73 22 40 -3 47
-6 50 -25z m772 -38 c7 -8 10 -22 6 -30 -5 -13 -47 -15 -333 -13 -312 3 -328
4 -331 22 -2 10 2 22 10 27 7 5 153 9 324 9 264 0 313 -2 324 -15z m6 -170 c4
-8 1 -22 -6 -30 -11 -13 -70 -15 -405 -15 -413 0 -425 1 -409 44 6 14 46 16
410 16 352 0 405 -2 410 -15z m-38 -154 c8 -5 12 -17 10 -27 -3 -18 -21 -19
-421 -22 -366 -2 -418 0 -423 13 -4 8 -1 22 6 30 11 13 71 15 414 15 220 0
407 -4 414 -9z m-141 -177 c15 -40 -15 -44 -353 -44 -272 0 -323 2 -334 15 -7
8 -10 22 -6 30 5 13 51 15 346 15 307 0 341 -2 347 -16z m-169 -153 c8 -5 12
-17 10 -27 -3 -18 -18 -19 -266 -22 -228 -2 -263 0 -268 13 -4 8 -1 22 6 30
10 13 53 15 259 15 135 0 252 -4 259 -9z m-141 -177 c14 -36 -22 -44 -198 -44
-135 0 -169 3 -179 15 -7 8 -10 22 -6 30 4 13 35 15 191 15 163 0 186 -2 192
-16z m-62 -158 c16 -12 17 -16 6 -30 -19 -23 -319 -24 -327 -1 -4 8 -1 22 6
30 17 21 287 22 315 1z"/>
<path d="M1892 2037 c-17 -18 -22 -36 -22 -80 l0 -57 76 0 76 0 -4 61 c-4 49
-9 66 -27 80 -32 26 -73 24 -99 -4z"/>
<path d="M1894 1656 c-18 -14 -18 -16 19 -53 37 -37 39 -37 53 -19 19 27 18
50 -4 69 -23 21 -42 21 -68 3z"/>
<path d="M1629 1373 c-298 -318 -301 -321 -291 -327 8 -5 502 513 510 535 12
31 -38 -15 -219 -208z"/>
<path d="M1771 1407 c-63 -67 -174 -186 -248 -264 -74 -78 -133 -148 -131
-154 4 -12 508 517 508 533 0 20 -22 1 -129 -115z"/>
<path d="M1291 960 c-10 -30 -9 -31 12 -24 35 10 39 19 18 38 -18 16 -19 16
-30 -14z"/>
<path d="M570 651 c0 -50 18 -99 40 -111 12 -6 211 -10 515 -10 470 0 497 1
490 18 -5 9 -10 45 -13 80 l-4 62 -514 0 -514 0 0 -39z"/>
</g>
</svg>
