<svg width="540" height="222" viewBox="0 0 540 222" fill="none" xmlns="http://www.w3.org/2000/svg">
<g filter="url(#filter0_d)">
<rect x="4" width="532" height="214" rx="30" fill="#0E1621"/>
<rect x="4.5" y="0.5" width="531" height="213" rx="29.5" stroke="black"/>
</g>
<g clip-path="url(#clip0)">
<path d="M128.217 177.281C124.664 176.182 122.157 171.991 122.172 167.177V167.737C122.177 172.425 124.72 176.44 128.217 177.281Z" fill="#5F7D95"/>
<path d="M183.603 90.5326C193.461 90.5326 198.388 97.5861 198.388 111.693C198.388 112.698 198.366 113.749 198.32 114.842H170.979C170.979 127.027 175.966 133.12 185.936 133.12C190.03 133.12 193.666 132.38 196.845 130.901V134.894C193.666 136.373 190.03 137.112 185.936 137.112C173.564 137.112 167.378 129.171 167.378 113.29C167.378 98.1186 172.786 90.5326 183.603 90.5326ZM170.979 110.673H194.923C194.787 99.8486 191.013 94.4364 183.603 94.4364C175.6 94.4364 171.392 99.8486 170.979 110.673ZM223.089 111.826V115.819H205.935V111.826H223.089ZM270.086 134.894C265.627 136.669 261.053 137.556 256.364 137.556C239.212 137.556 230.636 126.539 230.636 104.507C230.636 83.6567 239.212 73.2316 256.364 73.2316C261.053 73.2316 265.627 74.1189 270.086 75.8932V79.8859C265.627 78.1117 261.28 77.2243 257.05 77.2243C241.842 77.2243 234.237 86.3183 234.237 104.507C234.237 123.878 241.842 133.563 257.05 133.563C261.28 133.563 265.627 132.676 270.086 130.901V134.894ZM282.47 113.645C282.47 126.924 286.872 133.563 295.678 133.563C304.482 133.563 308.884 126.924 308.884 113.645C308.884 100.603 304.482 94.0815 295.678 94.0815C286.872 94.0815 282.47 100.603 282.47 113.645ZM278.868 113.823C278.868 98.0003 284.47 90.0892 295.678 90.0892C306.884 90.0892 312.486 98.0003 312.486 113.823C312.486 129.615 306.884 137.511 295.678 137.511C284.516 137.511 278.913 129.615 278.868 113.823ZM321.748 137.112V90.5326H324.323L324.769 96.4773C329.365 92.5142 333.869 90.5326 338.282 90.5326C347.042 90.5326 351.422 95.4273 351.422 105.216V137.112H347.82V105.083C347.82 98.1629 344.584 94.7026 338.113 94.7026C333.789 94.7026 329.536 96.6692 325.35 100.603V137.112H321.748ZM362.297 82.9914H364.836L365.486 90.5326H376.292V94.5254H365.796V123.937C365.796 130.059 367.532 133.12 371.01 133.12H376.292V137.112H371.079C365.223 137.112 362.297 132.928 362.297 124.558V82.9914ZM383.978 137.112V90.5326H386.55L386.995 98.2515C390.611 93.1056 394.634 90.5326 399.069 90.5326V94.2591C394.772 94.2591 390.941 96.965 387.58 102.377V137.112H383.978ZM403.737 123.937C403.737 114.68 408.493 110.052 418.009 110.052C421.37 110.052 424.961 110.347 428.779 110.939V105.216C428.779 98.0889 425.315 94.5254 418.386 94.5254C414.681 94.5254 410.883 95.2644 406.996 96.7431V92.7507C410.883 91.272 414.681 90.5326 418.386 90.5326C427.716 90.5326 432.381 95.3534 432.381 104.994V137.112H430.185L429.363 132.498C424.856 135.575 420.49 137.112 416.257 137.112C407.909 137.112 403.737 132.72 403.737 123.937ZM418.009 114.044C410.897 114.044 407.339 117.297 407.339 123.804C407.339 130.014 410.312 133.12 416.257 133.12C420.648 133.12 424.823 131.611 428.779 128.595V114.931C424.961 114.34 421.37 114.044 418.009 114.044ZM443.256 82.9914H445.795L446.445 90.5326H457.251V94.5254H446.752V123.937C446.752 130.059 448.491 133.12 451.968 133.12H457.251V137.112H452.038C446.182 137.112 443.256 132.928 443.256 124.558V82.9914ZM466.822 113.645C466.822 126.924 471.224 133.563 480.028 133.563C488.835 133.563 493.237 126.924 493.237 113.645C493.237 100.603 488.835 94.0815 480.028 94.0815C471.224 94.0815 466.822 100.603 466.822 113.645ZM463.223 113.823C463.223 98.0003 468.824 90.0892 480.028 90.0892C491.238 90.0892 496.839 98.0003 496.839 113.823C496.839 129.615 491.238 137.511 480.028 137.511C468.871 137.511 463.267 129.615 463.223 113.823Z" fill="white"/>
<path d="M122.172 167.737V158.005H44.6888V167.737C44.6888 173.111 47.9929 177.47 52.0681 177.47H129.551C129.401 177.47 129.262 177.423 129.114 177.411C128.813 177.397 128.514 177.358 128.217 177.29C124.717 176.449 122.173 172.43 122.172 167.737Z" fill="#5F7D95"/>
<path d="M140.787 81.7792L136.931 76.6697L136.876 76.5972L97.7469 128.224L101.657 133.383L140.787 81.7792Z" fill="#5F7D95"/>
<path d="M129.114 177.401C128.813 177.384 128.514 177.345 128.217 177.281C128.514 177.348 128.813 177.387 129.114 177.401Z" fill="#5F7D95"/>
<path d="M55.7578 157.996H122.172V158.006H55.7578V157.996Z" fill="#5F7D95"/>
<path d="M144.309 36.3554C144.271 36.3554 144.232 36.3554 144.193 36.3554H144.309C140.239 36.3685 136.94 40.7177 136.931 46.0873V55.8194H151.689V46.0873C151.689 40.7129 148.386 36.3554 144.309 36.3554Z" fill="#5F7D95"/>
<path d="M136.931 46.0873C136.94 40.7177 140.239 36.3685 144.309 36.3554H144.193C140.164 36.4386 136.931 40.7724 136.931 46.0873Z" fill="#5F7D95"/>
<path d="M101.657 133.383L105.568 138.542L144.697 86.9376L140.787 81.7792L101.657 133.383Z" fill="#5F7D95"/>
<path d="M140.787 81.7792L144.697 86.9376L147.317 83.4827C148.356 82.1155 148.94 80.2597 148.94 78.3246C148.94 76.3892 148.356 74.5338 147.317 73.1662C145.149 70.3198 141.645 70.3198 139.476 73.1662L136.931 76.5235V76.6697L140.787 81.7792Z" fill="#5F7D95"/>
<path d="M136.931 76.6701V76.5236L136.875 76.5974L136.931 76.6701Z" fill="#5F7D95"/>
<path d="M101.657 133.383L97.7469 128.224L101.657 133.383Z" fill="#5F7D95"/>
<path d="M97.7469 128.224L97.7413 128.217L93.8282 143.701L105.568 138.542L101.657 133.383L97.7469 128.224Z" fill="#5F7D95"/>
<path d="M101.657 133.383L105.568 138.542L101.657 133.383Z" fill="#5F7D95"/>
<path d="M144.31 33.9224C144.27 33.9224 144.229 33.9224 144.189 33.9224H63.1378C58.0465 33.9307 53.9199 39.3717 53.9137 46.0874V155.572H44.6895C43.6707 155.572 42.8447 156.661 42.8447 158.005V167.737C42.851 174.452 46.9775 179.893 52.0688 179.902H129.406C129.462 179.902 129.515 179.921 129.573 179.921H129.992C134.919 179.612 138.789 174.244 138.776 167.737V98.1876L146.002 88.6647L148.622 85.2102C151.426 81.5655 151.559 75.6538 148.924 71.7965C146.287 67.9392 141.816 67.5009 138.776 70.8023V58.2524H151.69C152.709 58.2524 153.535 57.163 153.535 55.8194V46.0874C153.528 39.3717 149.403 33.9307 144.31 33.9224ZM52.0688 175.036C49.0124 175.036 46.5343 171.768 46.5343 167.737V160.438H120.327V167.737C120.326 170.37 120.973 172.932 122.173 175.036H52.0688ZM135.086 167.737C135.086 169.667 134.508 171.52 133.477 172.891C132.499 174.176 131.194 174.94 129.814 175.036C129.692 175.036 129.573 175.014 129.445 175.008C129.155 175 128.864 174.963 128.578 174.894C127.581 174.621 126.662 173.981 125.929 173.048C124.713 171.515 124.022 169.395 124.018 167.177V158.005C124.018 156.661 123.191 155.572 122.173 155.572H57.6033V46.0874C57.6033 42.0565 60.0814 38.7884 63.1378 38.7884H136.932V38.8074C136.666 39.279 136.428 39.7768 136.218 40.2948C136.16 40.4302 136.114 40.5692 136.063 40.7082C135.909 41.111 135.775 41.5243 135.658 41.9461C135.61 42.1195 135.566 42.2894 135.524 42.4652C135.423 42.8905 135.342 43.3229 135.278 43.7613C135.255 43.9241 135.224 44.088 135.203 44.2484C135.128 44.8566 135.089 45.4709 135.086 46.0874V75.5269L96.53 126.403C96.5067 126.427 96.4906 126.455 96.4696 126.479L96.4522 126.506L96.4408 126.525C96.286 126.737 96.1609 126.985 96.0718 127.254C96.0718 127.279 96.054 127.303 96.046 127.328C96.0316 127.364 96.018 127.401 96.0053 127.439L92.0914 142.922C91.9028 143.665 91.9975 144.481 92.3447 145.116C92.6913 145.748 93.2489 146.125 93.8417 146.125C94.0407 146.124 94.2378 146.083 94.4264 146L106.165 140.84C106.188 140.84 106.209 140.809 106.231 140.796C106.253 140.784 106.306 140.748 106.347 140.723C106.523 140.618 106.684 140.476 106.825 140.305C106.844 140.282 106.868 140.276 106.886 140.252L135.086 103.054V167.737ZM98.5482 132.721L100.353 135.103L102.154 137.478L96.7456 139.855L98.5482 132.721ZM100.356 128.224L136.873 80.0517L138.18 81.7838L101.652 129.958L100.356 128.224ZM105.569 135.101L104.266 133.383L140.795 85.2102L142.097 86.928L105.569 135.101ZM140.776 74.8937C142.226 72.999 144.564 72.999 146.013 74.8937C146.706 75.8049 147.096 77.0414 147.096 78.3318C147.096 79.6218 146.706 80.8597 146.013 81.7696L144.698 83.5042L139.482 76.609L140.776 74.8937ZM149.845 53.3864H138.776V46.0874C138.788 42.0625 141.259 38.8026 144.31 38.7884H144.338C147.384 38.8086 149.845 42.0708 149.845 46.0874V53.3864Z" fill="white"/>
<path d="M112.948 92.3144H66.8268C65.808 92.3144 64.982 93.4036 64.982 94.7473C64.982 96.0909 65.808 97.1802 66.8268 97.1802H112.948C113.967 97.1802 114.792 96.0909 114.792 94.7473C114.792 93.4036 113.967 92.3144 112.948 92.3144Z" fill="white"/>
<path d="M101.878 106.912H66.8268C65.808 106.912 64.982 108.002 64.982 109.345C64.982 110.689 65.808 111.778 66.8268 111.778H101.878C102.897 111.778 103.723 110.689 103.723 109.345C103.723 108.002 102.897 106.912 101.878 106.912Z" fill="white"/>
<path d="M92.6546 123.943C92.6546 122.6 91.8282 121.51 90.8094 121.51H66.8268C65.808 121.51 64.982 122.6 64.982 123.943C64.982 125.287 65.808 126.376 66.8268 126.376H90.8094C91.8282 126.376 92.6546 125.287 92.6546 123.943Z" fill="white"/>
<path d="M87.1199 136.108H66.8268C65.808 136.108 64.982 137.198 64.982 138.542C64.982 139.885 65.808 140.974 66.8268 140.974H87.1199C88.1388 140.974 88.9652 139.885 88.9652 138.542C88.9652 137.198 88.1388 136.108 87.1199 136.108Z" fill="white"/>
<path d="M124.017 77.7164H66.8268C65.808 77.7164 64.982 78.8057 64.982 80.1493C64.982 81.493 65.808 82.5822 66.8268 82.5822H124.017C125.036 82.5822 125.861 81.493 125.861 80.1493C125.861 78.8057 125.036 77.7164 124.017 77.7164Z" fill="white"/>
<path d="M125.861 63.1183H70.5165C69.4977 63.1183 68.6717 64.2077 68.6717 65.5513C68.6717 66.8949 69.4977 67.9843 70.5165 67.9843H125.861C126.88 67.9843 127.706 66.8949 127.706 65.5513C127.706 64.2077 126.88 63.1183 125.861 63.1183Z" fill="white"/>
<path d="M81.5853 53.3864H125.861C126.88 53.3864 127.706 52.297 127.706 50.9533C127.706 49.6098 126.88 48.5204 125.861 48.5204H81.5853C80.5667 48.5204 79.7406 49.6098 79.7406 50.9533C79.7406 52.297 80.5667 53.3864 81.5853 53.3864Z" fill="white"/>
<path d="M64.982 50.9534C64.982 49.6098 65.808 48.5204 66.8268 48.5204H70.5165C71.5354 48.5204 72.3612 47.431 72.3612 46.0874C72.3612 44.7437 71.5354 43.6544 70.5165 43.6544H66.8268C63.7704 43.6544 61.2923 46.9225 61.2923 50.9534V55.8194C61.2923 57.163 62.1183 58.2524 63.1371 58.2524C64.1559 58.2524 64.982 57.163 64.982 55.8194V50.9534Z" fill="white"/>
</g>
<defs>
<filter id="filter0_d" x="0" y="0" width="540" height="222" filterUnits="userSpaceOnUse" color-interpolation-filters="sRGB">
<feFlood flood-opacity="0" result="BackgroundImageFix"/>
<feColorMatrix in="SourceAlpha" type="matrix" values="0 0 0 0 0 0 0 0 0 0 0 0 0 0 0 0 0 0 127 0"/>
<feOffset dy="4"/>
<feGaussianBlur stdDeviation="2"/>
<feColorMatrix type="matrix" values="0 0 0 0 0 0 0 0 0 0 0 0 0 0 0 0 0 0 0.25 0"/>
<feBlend mode="normal" in2="BackgroundImageFix" result="effect1_dropShadow"/>
<feBlend mode="normal" in="SourceGraphic" in2="effect1_dropShadow" result="shape"/>
</filter>
<clipPath id="clip0">
<rect x="42.7917" y="33.9224" width="454.047" height="146.516" rx="30" fill="white"/>
</clipPath>
</defs>
</svg>
