<svg width="164" height="41" viewBox="0 0 164 41" fill="none" xmlns="http://www.w3.org/2000/svg">
<path d="M30.8554 40.1165C29.5718 39.809 28.6663 38.6361 28.6718 37.289V37.4458C28.6738 38.7575 29.5923 39.8812 30.8554 40.1165Z" fill="#5F7D95"/>
<path d="M50.8606 15.8414C54.4212 15.8414 56.2009 17.8152 56.2009 21.7628C56.2009 22.0441 56.1929 22.338 56.1762 22.6441H46.3009C46.3009 26.0538 48.1019 27.7587 51.7033 27.7587C53.1818 27.7587 54.4953 27.5517 55.6433 27.1379V28.2552C54.4953 28.669 53.1818 28.8759 51.7033 28.8759C47.2344 28.8759 45 26.6538 45 22.2097C45 17.9642 46.9533 15.8414 50.8606 15.8414ZM46.3009 21.4773H54.9494C54.9 18.4483 53.5371 16.9338 50.8606 16.9338C47.9697 16.9338 46.4498 18.4483 46.3009 21.4773ZM65.1226 21.8V22.9173H58.9268V21.8H65.1226ZM82.0979 28.2552C80.4872 28.7518 78.8351 29 77.1415 29C70.9464 29 67.8485 25.9173 67.8485 19.7518C67.8485 13.9173 70.9464 11 77.1415 11C78.8351 11 80.4872 11.2483 82.0979 11.7448V12.8621C80.4872 12.3656 78.9172 12.1173 77.3893 12.1173C71.896 12.1173 69.1494 14.6621 69.1494 19.7518C69.1494 25.1724 71.896 27.8828 77.3893 27.8828C78.9172 27.8828 80.4872 27.6345 82.0979 27.1379V28.2552ZM86.5708 22.309C86.5708 26.0249 88.1608 27.8828 91.3415 27.8828C94.5215 27.8828 96.1115 26.0249 96.1115 22.309C96.1115 18.6593 94.5215 16.8345 91.3415 16.8345C88.1608 16.8345 86.5708 18.6593 86.5708 22.309ZM85.2699 22.3587C85.2699 17.9311 87.2933 15.7173 91.3415 15.7173C95.389 15.7173 97.4124 17.9311 97.4124 22.3587C97.4124 26.778 95.389 28.9876 91.3415 28.9876C87.31 28.9876 85.2859 26.778 85.2699 22.3587ZM100.758 28.8759V15.8414H101.688L101.849 17.5049C103.509 16.3959 105.136 15.8414 106.73 15.8414C109.894 15.8414 111.476 17.2111 111.476 19.9504V28.8759H110.175V19.9131C110.175 17.9766 109.006 17.0083 106.669 17.0083C105.107 17.0083 103.571 17.5586 102.059 18.6593V28.8759H100.758ZM115.404 13.7311H116.321L116.556 15.8414H120.459V16.9587H116.668V25.189C116.668 26.9021 117.295 27.7587 118.551 27.7587H120.459V28.8759H118.576C116.461 28.8759 115.404 27.7049 115.404 25.3628V13.7311ZM123.235 28.8759V15.8414H124.164L124.325 18.0014C125.631 16.5614 127.084 15.8414 128.686 15.8414V16.8842C127.134 16.8842 125.75 17.6414 124.536 19.1559V28.8759H123.235ZM130.372 25.189C130.372 22.5986 132.09 21.3035 135.527 21.3035C136.741 21.3035 138.038 21.3862 139.417 21.5517V19.9504C139.417 17.9559 138.166 16.9587 135.663 16.9587C134.325 16.9587 132.953 17.1655 131.549 17.5793V16.4621C132.953 16.0483 134.325 15.8414 135.663 15.8414C139.033 15.8414 140.718 17.1904 140.718 19.8883V28.8759H139.925L139.628 27.5848C138 28.4456 136.423 28.8759 134.894 28.8759C131.879 28.8759 130.372 27.6469 130.372 25.189ZM135.527 22.4207C132.958 22.4207 131.673 23.331 131.673 25.1518C131.673 26.8897 132.747 27.7587 134.894 27.7587C136.48 27.7587 137.988 27.3366 139.417 26.4924V22.669C138.038 22.5035 136.741 22.4207 135.527 22.4207ZM144.646 13.7311H145.563L145.798 15.8414H149.701V16.9587H145.909V25.189C145.909 26.9021 146.537 27.7587 147.793 27.7587H149.701V28.8759H147.818C145.703 28.8759 144.646 27.7049 144.646 25.3628V13.7311ZM153.158 22.309C153.158 26.0249 154.748 27.8828 157.928 27.8828C161.109 27.8828 162.699 26.0249 162.699 22.309C162.699 18.6593 161.109 16.8345 157.928 16.8345C154.748 16.8345 153.158 18.6593 153.158 22.309ZM151.858 22.3587C151.858 17.9311 153.881 15.7173 157.928 15.7173C161.977 15.7173 164 17.9311 164 22.3587C164 26.778 161.977 28.9876 157.928 28.9876C153.898 28.9876 151.874 26.778 151.858 22.3587Z" fill="white"/>
<path d="M28.6718 37.4458V34.7224H0.685242V37.4458C0.685242 38.9496 1.87868 40.1692 3.3506 40.1692H31.3372C31.283 40.1692 31.2326 40.1562 31.1793 40.1527C31.0706 40.1489 30.9626 40.1379 30.8553 40.1191C29.5911 39.8835 28.6723 38.759 28.6718 37.4458Z" fill="#5F7D95"/>
<path d="M35.3955 13.3919L34.0027 11.9621L33.9827 11.9418L19.8496 26.3888L21.2619 27.8323L35.3955 13.3919Z" fill="#5F7D95"/>
<path d="M31.1793 40.1501C31.0706 40.1454 30.9626 40.1344 30.8553 40.1165C30.9626 40.1353 31.0706 40.146 31.1793 40.1501Z" fill="#5F7D95"/>
<path d="M4.68332 34.7198H28.6718V34.7227H4.68332V34.7198Z" fill="#5F7D95"/>
<path d="M36.6678 0.680832C36.6539 0.680832 36.64 0.680832 36.6258 0.680832H36.6678C35.1976 0.684483 34.0061 1.90154 34.0027 3.40414V6.12749H39.3333V3.40414C39.3333 1.9002 38.1401 0.680832 36.6678 0.680832Z" fill="#5F7D95"/>
<path d="M34.0027 3.40414C34.0061 1.90154 35.1976 0.684483 36.6678 0.680832H36.6258C35.1704 0.704099 34.0027 1.91684 34.0027 3.40414Z" fill="#5F7D95"/>
<path d="M21.2619 27.8323L22.6747 29.2759L36.8078 14.8354L35.3955 13.3919L21.2619 27.8323Z" fill="#5F7D95"/>
<path d="M35.3955 13.3919L36.8078 14.8354L37.7541 13.8686C38.1293 13.486 38.3403 12.9667 38.3403 12.4252C38.3403 11.8836 38.1293 11.3644 37.7541 10.9817C36.9712 10.1852 35.7053 10.1852 34.922 10.9817L34.0027 11.9212V11.9621L35.3955 13.3919Z" fill="#5F7D95"/>
<path d="M34.0027 11.9621V11.9212L33.9827 11.9418L34.0027 11.9621Z" fill="#5F7D95"/>
<path d="M21.2619 27.8323L19.8496 26.3888L21.2619 27.8323Z" fill="#5F7D95"/>
<path d="M19.8496 26.3888L19.8476 26.3867L18.4342 30.7197L22.6747 29.2759L21.2619 27.8323L19.8496 26.3888Z" fill="#5F7D95"/>
<path d="M21.2619 27.8323L22.6747 29.2759L21.2619 27.8323Z" fill="#5F7D95"/>
<path d="M36.6681 0C36.6536 0 36.6388 0 36.6244 0H7.34899C5.51004 0.00231803 4.01954 1.52489 4.01728 3.40415V34.0415H0.685544C0.317556 34.0415 0.0191956 34.3463 0.0191956 34.7224V37.4458C0.0214846 39.3249 1.51195 40.8475 3.35093 40.8498H31.2848C31.3051 40.8498 31.3242 40.8553 31.345 40.8553H31.4963C33.276 40.7687 34.674 39.2666 34.6691 37.4458V17.9835L37.2792 15.3187L38.2255 14.352C39.2385 13.3321 39.2863 11.6778 38.3345 10.5984C37.3821 9.519 35.7673 9.39635 34.6691 10.3202V6.80832H39.3336C39.7016 6.80832 40 6.50347 40 6.12749V3.40415C39.9977 1.52489 38.5075 0.00231803 36.6681 0ZM3.35093 39.4883C2.24697 39.4883 1.35189 38.5738 1.35189 37.4458V35.4033H28.0056V37.4458C28.005 38.1824 28.2389 38.8995 28.6721 39.4883H3.35093ZM33.3365 37.4458C33.3365 37.9859 33.1276 38.5043 32.7553 38.8879C32.4018 39.2475 31.9306 39.4613 31.4323 39.4883C31.3882 39.4883 31.345 39.4822 31.2987 39.4805C31.1941 39.4781 31.0892 39.4677 30.9857 39.4486C30.6256 39.3721 30.2938 39.193 30.029 38.9319C29.5897 38.5028 29.3402 37.9097 29.3385 37.289V34.7224C29.3385 34.3463 29.04 34.0415 28.6721 34.0415H5.34995V3.40415C5.34995 2.27619 6.24503 1.36167 7.34899 1.36167H34.003V1.36697C33.907 1.49896 33.821 1.63824 33.7451 1.7832C33.7242 1.8211 33.7077 1.85999 33.6891 1.89887C33.6338 2.01159 33.5854 2.12726 33.5431 2.24528C33.5257 2.29381 33.5098 2.34136 33.4947 2.39056C33.4582 2.50956 33.4287 2.63056 33.4058 2.75324C33.3974 2.79879 33.3861 2.84466 33.3785 2.88954C33.3516 3.05975 33.3374 3.23163 33.3365 3.40415V11.6423L19.4101 25.8791C19.4017 25.8858 19.3959 25.8936 19.3883 25.9003L19.382 25.9078L19.3779 25.9133C19.322 25.9727 19.2768 26.0419 19.2446 26.1173C19.2446 26.1242 19.2382 26.1309 19.2353 26.1379C19.2301 26.148 19.2252 26.1584 19.2206 26.1691L17.8069 30.5018C17.7388 30.7096 17.773 30.9379 17.8984 31.1155C18.0236 31.2926 18.225 31.398 18.4391 31.398C18.511 31.3978 18.5822 31.3862 18.6503 31.363L22.8903 29.9191C22.8987 29.9191 22.9062 29.9105 22.9141 29.9067C22.9222 29.9035 22.9413 29.8934 22.9561 29.8864C23.0195 29.8568 23.0778 29.8172 23.1288 29.7693C23.1354 29.763 23.1441 29.7612 23.1505 29.7546L33.3365 19.3452V37.4458ZM20.1391 27.6472L20.791 28.3136L21.4415 28.9783L19.488 29.6433L20.1391 27.6472ZM20.7922 26.3888L33.9818 12.9085L34.4541 13.3932L21.2601 26.8738L20.7922 26.3888ZM22.675 28.313L22.2045 27.8323L35.3984 14.352L35.8687 14.8327L22.675 28.313ZM35.3915 11.4651C35.9153 10.9349 36.7597 10.9349 37.2833 11.4651C37.5336 11.7201 37.6744 12.0661 37.6744 12.4272C37.6744 12.7882 37.5336 13.1346 37.2833 13.3892L36.8081 13.8746L34.9241 11.9451L35.3915 11.4651ZM38.6671 5.44665H34.6691V3.40415C34.6734 2.27787 35.5659 1.36564 36.6681 1.36167H36.6783C37.7785 1.36732 38.6671 2.28019 38.6671 3.40415V5.44665Z" fill="white"/>
<path d="M25.3402 16.34H8.68139C8.3134 16.34 8.01505 16.6448 8.01505 17.0208C8.01505 17.3968 8.3134 17.7016 8.68139 17.7016H25.3402C25.7082 17.7016 26.0063 17.3968 26.0063 17.0208C26.0063 16.6448 25.7082 16.34 25.3402 16.34Z" fill="white"/>
<path d="M21.3419 20.4249H8.68139C8.3134 20.4249 8.01505 20.7298 8.01505 21.1058C8.01505 21.4818 8.3134 21.7866 8.68139 21.7866H21.3419C21.7098 21.7866 22.0083 21.4818 22.0083 21.1058C22.0083 20.7298 21.7098 20.4249 21.3419 20.4249Z" fill="white"/>
<path d="M18.0103 25.1908C18.0103 24.8148 17.7118 24.5099 17.3438 24.5099H8.68139C8.3134 24.5099 8.01505 24.8148 8.01505 25.1908C8.01505 25.5667 8.3134 25.8716 8.68139 25.8716H17.3438C17.7118 25.8716 18.0103 25.5667 18.0103 25.1908Z" fill="white"/>
<path d="M16.0112 28.595H8.68139C8.3134 28.595 8.01505 28.8998 8.01505 29.2759C8.01505 29.6517 8.3134 29.9565 8.68139 29.9565H16.0112C16.3792 29.9565 16.6777 29.6517 16.6777 29.2759C16.6777 28.8998 16.3792 28.595 16.0112 28.595Z" fill="white"/>
<path d="M29.3382 12.255H8.68139C8.3134 12.255 8.01505 12.5598 8.01505 12.9358C8.01505 13.3118 8.3134 13.6166 8.68139 13.6166H29.3382C29.7062 13.6166 30.0043 13.3118 30.0043 12.9358C30.0043 12.5598 29.7062 12.255 29.3382 12.255Z" fill="white"/>
<path d="M30.0044 8.16997H10.0141C9.64611 8.16997 9.34775 8.47482 9.34775 8.8508C9.34775 9.22679 9.64611 9.53164 10.0141 9.53164H30.0044C30.3723 9.53164 30.6708 9.22679 30.6708 8.8508C30.6708 8.47482 30.3723 8.16997 30.0044 8.16997Z" fill="white"/>
<path d="M14.0121 5.44665H30.0043C30.3723 5.44665 30.6708 5.1418 30.6708 4.76581C30.6708 4.38983 30.3723 4.08498 30.0043 4.08498H14.0121C13.6442 4.08498 13.3458 4.38983 13.3458 4.76581C13.3458 5.1418 13.6442 5.44665 14.0121 5.44665Z" fill="white"/>
<path d="M8.01504 4.76582C8.01504 4.38984 8.3134 4.08498 8.68139 4.08498H10.0141C10.3821 4.08498 10.6804 3.78013 10.6804 3.40415C10.6804 3.02816 10.3821 2.72334 10.0141 2.72334H8.68139C7.57742 2.72334 6.68234 3.63786 6.68234 4.76582V6.12749C6.68234 6.50348 6.9807 6.80833 7.34869 6.80833C7.71668 6.80833 8.01504 6.50348 8.01504 6.12749V4.76582Z" fill="white"/>
</svg>
