<svg width="598" height="423" viewBox="0 0 598 423" fill="none" xmlns="http://www.w3.org/2000/svg">
<path opacity="0.18" d="M34.2241 347.342C24.3756 336.301 16.2518 322.359 10.3881 306.434C4.52432 290.51 1.05377 272.964 0.205045 254.952C-0.643674 236.941 1.1487 218.873 5.46409 201.94C9.77949 185.007 16.5198 169.591 25.2413 156.711C38.2814 137.633 55.1367 125.368 69.6005 108.851C94.6131 80.4616 113.134 39.4571 141.037 17.7781C174.633 -8.34012 215.348 -1.4441 252.247 11.584C289.148 24.6121 326.217 43.2768 364.057 38.5693C386.592 35.7407 408.288 24.674 430.61 19.2853C452.933 13.8964 477.418 14.8669 496.096 33.738C523.286 61.384 529.749 117.254 552.057 153.283C562.863 170.75 577.212 183.179 586.779 202.174C602.168 232.711 601.769 278.567 585.854 308.525C565.468 346.825 528.682 352.895 499.014 373.955C482.501 385.683 467.695 402.593 450.611 412.42C414.708 433.067 374.321 419.626 337.507 402.943C300.693 386.261 262.768 366.192 224.659 374.368C189.069 382.049 156.995 413.906 121.106 418.738C104.45 420.988 85.4309 416.673 75.2522 395.82C64.3047 373.46 49.0438 363.859 34.2241 347.342Z" fill="#2B5279"/>
<path d="M43.8758 229.014C53.542 213.425 53.542 213.425 64.5037 194.719L111.155 115.539C121.476 98.3818 125.561 90.598 131.085 78.3751H175.216C173.955 95.5594 173.38 112.835 173.494 130.116V231.512H179.729C186.879 231.414 194.015 230.58 201.083 229.014V285.751C194.093 284.505 187.056 283.885 180.014 283.892H173.565V299.481C173.359 312.31 173.936 325.141 175.288 337.822H130.929C132.149 324.913 132.725 311.892 132.651 298.862V283.583H71.8209C57.8413 283.583 51.8906 283.892 43.8758 284.822V229.014ZM132.864 195.979C132.864 181.939 133.292 164.802 134.16 151.073C129.89 159.806 126.629 166.041 120.835 176.634L89.4451 232.131H132.864V195.979Z" fill="#2B5279"/>
<path d="M43.8758 229.014C53.542 213.425 53.542 213.425 64.5037 194.719L111.155 115.539C121.476 98.3818 125.561 90.598 131.085 78.3751H175.216C173.955 95.5594 173.38 112.835 173.494 130.116V231.512H179.729C186.879 231.414 194.015 230.58 201.083 229.014V285.751C194.093 284.505 187.056 283.885 180.014 283.892H173.565V299.481C173.359 312.31 173.936 325.141 175.288 337.822H130.929C132.149 324.913 132.725 311.892 132.651 298.862V283.583H71.8209C57.8413 283.583 51.8906 283.892 43.8758 284.822V229.014ZM132.864 195.979C132.864 181.939 133.292 164.802 134.16 151.073C129.89 159.806 126.629 166.041 120.835 176.634L89.4451 232.131H132.864V195.979Z" fill="url(#paint0_linear)"/>
<path d="M283.097 150.825C287.368 151.857 291.339 155.656 295.625 157.019C299.369 158.257 303.312 157.618 307.013 159.517C313.918 163.068 318.402 175.146 319.384 187.266C320.366 199.386 318.616 211.65 316.622 223.419C311.383 254.43 304.265 285.4 291.453 308.917C290.557 310.548 289.474 312.261 288.15 312.22C287.232 312.037 286.374 311.454 285.687 310.548C282.998 307.877 280.537 304.75 278.356 301.236C274.94 295.269 272.961 287.403 271.238 279.599C266.383 257.63 257.116 243.715 255.393 220.425C253.514 196 262.726 145.952 283.097 150.825Z" fill="#2B5279"/>
<path d="M269.316 166.474C267.498 165.999 265.624 166.49 264.035 167.858C262.369 169.344 260.93 171.309 259.806 173.631C258.682 175.952 257.898 178.584 257.5 181.361C256.73 186.928 256.59 192.639 257.088 198.271C258.062 214.798 260.271 231.122 263.679 246.956C264.676 251.54 261.828 262.421 263.892 266.178C265.572 269.234 264.733 287.589 266.925 289.859C273.003 296.219 285.631 292.709 291.709 299.069C299.582 307.327 299.055 285.524 297.803 276.543C296.379 266.529 285.687 268.284 277.502 234.465C266.611 189.454 272.107 167.404 269.316 166.474Z" fill="url(#paint1_linear)"/>
<path d="M375.787 227.857C385.453 212.27 385.453 212.27 396.415 193.564L443.067 114.363C450.348 102.722 457.01 90.2984 462.997 77.1982H507.128C505.866 94.3893 505.291 111.673 505.405 128.959V230.293H511.641C518.767 230.181 525.878 229.347 532.923 227.795V284.533C525.934 283.27 518.898 282.642 511.854 282.654H505.405V298.243C505.199 311.072 505.775 323.902 507.128 336.584H462.84C464.055 323.728 464.631 310.763 464.562 297.788V282.509H403.733C389.753 282.509 383.731 282.82 375.787 283.769V227.857ZM464.776 194.823C464.776 180.783 465.203 163.646 466.058 149.937C461.786 158.65 458.54 164.885 452.733 175.498L421.413 230.996H464.834L464.776 194.823Z" fill="#2B5279"/>
<path d="M375.787 227.857C385.453 212.27 385.453 212.27 396.415 193.564L443.067 114.363C450.348 102.722 457.01 90.2984 462.997 77.1982H507.128C505.866 94.3893 505.291 111.673 505.405 128.959V230.293H511.641C518.767 230.181 525.878 229.347 532.923 227.795V284.533C525.934 283.27 518.898 282.642 511.854 282.654H505.405V298.243C505.199 311.072 505.775 323.902 507.128 336.584H462.84C464.055 323.728 464.631 310.763 464.562 297.788V282.509H403.733C389.753 282.509 383.731 282.82 375.787 283.769V227.857ZM464.776 194.823C464.776 180.783 465.203 163.646 466.058 149.937C461.786 158.65 458.54 164.885 452.733 175.498L421.413 230.996H464.834L464.776 194.823Z" fill="url(#paint2_linear)"/>
<path d="M236.687 312.117C229.833 302.318 224.495 290.514 221.028 277.492C215.365 254.592 212.526 230.425 212.643 206.096C212.643 173.37 218.024 139.386 226.196 119.751C239.307 87.9345 261.657 70.488 288.748 70.488C309.604 70.488 327.869 80.8113 340.981 99.3934C347.835 109.185 353.172 120.981 356.639 133.998C362.315 157 365.149 181.274 365.01 205.703C365.01 238.45 359.644 272.744 351.472 292.421C338.574 323.638 316.01 341.146 288.706 341.146C267.637 341.146 249.799 331.112 236.687 312.117ZM256.618 203.619C256.618 259.364 267.579 288.105 288.863 288.105C310.145 288.105 320.68 260.045 320.68 204.548C320.68 151.237 309.504 123.178 288.648 123.178C268.505 123.178 256.675 152.785 256.675 203.619H256.618Z" fill="#2B5279"/>
<path d="M236.687 312.117C229.833 302.318 224.495 290.514 221.028 277.492C215.365 254.592 212.526 230.425 212.643 206.096C212.643 173.37 218.024 139.386 226.196 119.751C239.307 87.9345 261.657 70.488 288.748 70.488C309.604 70.488 327.869 80.8113 340.981 99.3934C347.835 109.185 353.172 120.981 356.639 133.998C362.315 157 365.149 181.274 365.01 205.703C365.01 238.45 359.644 272.744 351.472 292.421C338.574 323.638 316.01 341.146 288.706 341.146C267.637 341.146 249.799 331.112 236.687 312.117ZM256.618 203.619C256.618 259.364 267.579 288.105 288.863 288.105C310.145 288.105 320.68 260.045 320.68 204.548C320.68 151.237 309.504 123.178 288.648 123.178C268.505 123.178 256.675 152.785 256.675 203.619H256.618Z" fill="url(#paint3_linear)"/>
<path d="M48.7017 227.857C58.3822 212.27 58.3822 212.27 69.3439 193.564L115.995 114.363C123.276 102.722 129.938 90.2984 135.925 77.1982H180.057C178.795 94.3893 178.219 111.673 178.334 128.959V230.293H184.569C191.719 230.186 198.855 229.352 205.923 227.795V284.533C198.934 283.27 191.898 282.642 184.854 282.654H178.405V298.243C178.199 311.072 178.775 323.902 180.129 336.584H135.769C136.984 323.728 137.559 310.763 137.491 297.788V282.509H76.6469C62.6815 282.509 56.7166 282.82 48.7017 283.769V227.857ZM137.705 194.823C137.705 180.783 138.132 163.646 138.986 149.937C134.716 158.65 131.47 164.885 125.661 175.498L94.3423 230.996H137.705V194.823Z" fill="#2B5279"/>
<path d="M241.513 313.273C234.66 303.481 229.321 291.685 225.854 278.67C220.176 255.773 217.322 231.604 217.426 207.273C217.426 174.548 222.807 140.563 230.979 120.907C244.09 89.1114 266.441 71.6649 293.531 71.6649C314.373 71.6649 332.652 81.9883 345.764 100.57C352.622 110.357 357.96 122.155 361.423 135.174C367.131 158.188 369.985 182.486 369.851 206.943C369.851 239.667 364.484 273.982 356.313 293.659C343.414 324.835 320.836 342.282 293.546 342.282C272.477 342.261 254.639 332.289 241.513 313.273ZM261.558 204.877C261.558 260.624 272.52 289.364 293.802 289.364C314.872 289.364 325.619 261.305 325.619 205.827C325.619 152.497 314.43 124.438 293.589 124.438C273.331 124.355 261.558 153.963 261.558 204.877Z" fill="#2B5279"/>
<path d="M328.609 96.3791C330.211 98.072 331.432 100.414 332.118 103.11C332.804 105.807 332.926 108.738 332.467 111.534C335.153 111.906 337.761 113.046 340.141 114.889C342.521 116.732 344.626 119.24 346.333 122.27C349.393 128.126 351.245 135.121 351.671 142.442C352.082 149.721 351.972 157.041 351.344 164.286C351.274 166.79 350.917 169.26 350.291 171.595C349.554 173.621 348.517 175.385 347.254 176.76C345.991 178.133 344.535 179.084 342.988 179.544C339.895 180.439 336.728 180.656 333.592 180.184L326.118 179.606C325.871 179.614 325.627 179.537 325.406 179.379C325.257 179.195 325.136 178.967 325.049 178.712C324.964 178.456 324.916 178.176 324.908 177.892C324.395 173.453 323.612 171.513 323.057 167.074C321.67 157.702 318.955 148.849 315.085 141.079C314.4 139.917 313.911 138.538 313.661 137.053C313.576 135 313.892 132.953 314.572 131.148C315.584 127.598 316.421 123.948 317.078 120.226C317.681 115.772 318.466 111.373 319.427 107.053C320.406 102.687 322.425 98.9691 325.121 96.5649" fill="url(#paint4_linear)"/>
<path d="M325.121 226.061C325.121 226.061 352.483 229.571 364.982 205.415C369.964 195.835 358.861 150.701 358.861 150.701L346.234 183.487L326.303 190.054L325.121 226.061Z" fill="url(#paint5_linear)"/>
<path d="M381.026 227.857C390.692 212.27 390.692 212.27 401.654 193.564L448.305 114.363C458.627 97.2256 462.712 89.4211 468.235 77.1982H512.367C511.117 94.4112 510.557 111.714 510.687 129.021V230.355H516.922C524.048 230.243 531.159 229.409 538.206 227.857V284.595C531.216 283.332 524.179 282.704 517.136 282.716H510.687V298.305C510.48 311.133 511.057 323.964 512.41 336.646H468.078C469.296 323.77 469.872 310.783 469.802 297.788V282.509H408.971C394.991 282.509 388.97 282.82 381.026 283.769V227.857ZM470.015 194.823C470.015 180.783 470.442 163.646 471.311 149.937C467.039 158.65 463.78 164.885 457.986 175.498L426.595 230.996H470.015V194.823Z" fill="#2B5279"/>
<path d="M260.917 155.449C260.18 155.84 259.466 156.316 258.782 156.874C258.139 157.346 257.576 158.015 257.13 158.835C256.913 159.251 256.773 159.741 256.723 160.258C256.673 160.775 256.715 161.302 256.845 161.788C257.135 162.434 257.552 162.939 258.042 163.237C258.532 163.537 259.073 163.613 259.593 163.46C261.344 163.212 262.967 161.953 264.718 161.519C266.469 161.086 268.12 159.331 266.882 156.626C265.644 153.921 262.668 154.499 260.917 155.449Z" fill="#F7AF87"/>
<path d="M266.498 161.519C263.935 160.549 261.259 162.18 258.952 164.059C258.409 164.443 257.924 164.984 257.529 165.649C257.292 165.923 257.121 166.3 257.042 166.725C256.963 167.149 256.979 167.6 257.089 168.01C257.198 168.42 257.396 168.769 257.652 169.006C257.908 169.242 258.209 169.353 258.511 169.324C259.035 169.4 259.564 169.351 260.078 169.179L263.622 168.291C264.447 168.152 265.249 167.817 266 167.3C267.609 165.938 268.975 162.407 266.498 161.519Z" fill="#F7AF87"/>
<path d="M261.558 168.353C260.823 168.759 260.109 169.242 259.422 169.799C258.773 170.3 258.209 171.006 257.771 171.863C257.558 172.278 257.419 172.764 257.37 173.277C257.319 173.789 257.36 174.312 257.486 174.796C257.776 175.442 258.193 175.947 258.683 176.245C259.172 176.543 259.713 176.621 260.234 176.468C261.985 176.22 263.608 174.96 265.359 174.527C267.109 174.094 268.761 172.36 267.522 169.634C266.285 166.908 263.28 167.404 261.558 168.353Z" fill="#F7AF87"/>
<path d="M267.081 173.557C264.448 173.246 262.013 175.622 259.963 177.975C259.465 178.504 259.044 179.17 258.725 179.937C258.529 180.269 258.412 180.683 258.388 181.119C258.365 181.554 258.438 181.99 258.597 182.361C258.755 182.733 258.99 183.022 259.269 183.187C259.548 183.353 259.856 183.386 260.148 183.282C260.669 183.225 261.179 183.043 261.657 182.744L265.031 180.948C265.832 180.6 266.587 180.063 267.266 179.358C268.676 177.665 269.629 173.908 267.081 173.557Z" fill="#F7AF87"/>
<path d="M342.532 115.271C338.381 112.402 333.816 111.021 329.221 111.244C328.445 111.191 327.668 111.373 326.943 111.782C326.589 112.006 326.287 112.376 326.075 112.845C325.863 113.314 325.748 113.863 325.747 114.425C325.886 115.404 326.272 116.273 326.83 116.861C328.511 119.077 330.4 120.941 332.439 122.394C333.054 122.747 333.615 123.273 334.09 123.942C334.322 124.281 334.471 124.721 334.515 125.195C334.558 125.668 334.494 126.149 334.332 126.564C333.863 127.514 332.78 127.556 332.424 128.629C331.954 129.971 333.137 131.293 334.161 131.54C335.25 131.811 336.37 131.661 337.407 131.107C338.133 130.565 338.927 130.242 339.742 130.157C340.546 130.407 341.304 130.908 341.962 131.623C344.212 133.481 351.202 133.543 350.76 127.886C350.347 122.642 345.408 117.439 342.532 115.271Z" fill="#F7AF87"/>
<path d="M308.137 160.797C308.137 160.797 339.614 179.606 343.216 178.636C346.817 177.665 340.994 132.614 340.994 132.614L351.728 125.491C351.728 125.491 375.93 195.071 356.113 205.187C343.858 211.135 330.581 210.931 318.416 204.61L308.137 160.797Z" fill="#2B5279"/>
<path d="M324.879 134.679C324.768 138.721 324.11 142.691 322.943 146.365C321.801 149.102 320.234 151.417 318.37 153.126C316.504 154.835 314.39 155.892 312.195 156.213C310.595 156.363 309.006 156.687 307.441 157.183C306.715 157.4 306.037 157.873 305.468 158.56C304.899 159.249 304.456 160.131 304.18 161.128C302.913 165.588 301.604 170.108 297.518 168.601C297.134 168.478 296.762 168.291 296.407 168.044C295.123 167.169 293.967 165.942 293.005 164.431C291.806 162.672 290.763 160.702 289.902 158.567C289.456 157.579 289.155 156.469 289.019 155.305C288.935 153.875 289.052 152.435 289.361 151.073C290.785 142.813 291.012 133.46 293.033 125.409C295.103 117.246 299.057 110.374 304.223 105.96C309.333 101.644 316.437 101.582 320.779 107.467C323.155 110.916 324.66 115.425 325.05 120.268C325.392 125.063 325.334 129.902 324.879 134.679Z" fill="#F7AF87"/>
<path d="M290.257 124.356C290.528 120.473 290.514 116.53 291.04 112.711C291.439 108.808 292.787 105.242 294.842 102.656C295.357 102.062 295.933 101.588 296.549 101.252C297.105 100.963 297.688 100.797 298.258 100.57C299.931 99.705 301.527 98.5544 303.013 97.143C305.266 95.1849 307.729 93.789 310.302 93.0136C312.04 92.6281 313.797 92.4485 315.555 92.4769C318.781 92.3943 322.023 92.3529 325.278 92.3529C326.042 92.2698 326.809 92.4539 327.513 92.8898C328.287 93.5825 328.852 94.6741 329.093 95.9455C329.712 98.7944 329.712 101.851 329.093 104.7C328.463 107.518 327.628 110.231 326.602 112.794C326.102 114.408 325.396 115.872 324.523 117.108C323.769 115.209 323.099 113.248 322.416 111.265C320.238 114.548 316.807 115.394 313.676 115.044C310.544 114.692 307.469 113.516 304.337 113.454C303.592 113.339 302.839 113.439 302.121 113.748C301.402 114.055 300.734 114.566 300.151 115.251C299.45 116.436 298.961 117.855 298.728 119.38C298.069 122.778 297.532 126.224 297.119 129.703C296.749 128.691 295.255 126.049 294.471 126.09C294.246 126.121 294.027 126.22 293.828 126.38C293.629 126.54 293.456 126.757 293.318 127.019C292.022 129.083 292.663 136.66 293.859 138.85C294.099 139.181 294.28 139.592 294.386 140.048C294.41 140.351 294.392 140.659 294.334 140.953C294.275 141.247 294.177 141.522 294.044 141.76C293.715 142.324 293.298 142.764 292.828 143.044C292.357 143.324 291.846 143.437 291.339 143.372C290.087 143.372 289.844 139.903 289.716 138.622C289.19 133.853 289.944 129.042 290.257 124.356Z" fill="#606060"/>
<path d="M295.255 133.069C295.078 132.534 295 131.945 295.027 131.355C295.056 130.764 295.012 130.169 294.898 129.6C294.768 129.078 294.509 128.644 294.172 128.381C294.075 128.341 293.971 128.341 293.873 128.381C293.791 128.433 293.717 128.511 293.66 128.612C293.604 128.713 293.564 128.832 293.546 128.959C293.048 131.222 293.103 133.666 293.703 135.876C293.781 136.273 293.921 136.638 294.111 136.946C294.301 137.253 294.535 137.495 294.799 137.652C295.031 137.719 295.271 137.702 295.497 137.601C295.723 137.5 295.928 137.319 296.094 137.074C296.318 136.73 296.471 136.303 296.537 135.84C296.602 135.376 296.577 134.895 296.464 134.452C296.222 133.626 295.553 133.812 295.255 133.069Z" fill="url(#paint6_linear)"/>
<path d="M307.441 157.142C306.715 157.359 306.037 157.831 305.468 158.519C304.899 159.208 304.456 160.09 304.18 161.086C302.913 165.546 301.604 170.067 297.518 168.56C297.134 168.437 296.762 168.249 296.407 168.003C296.062 167.574 295.781 167.046 295.581 166.455C295.399 165.758 295.315 165.014 295.335 164.269C295.354 163.525 295.476 162.793 295.696 162.119C296.189 160.384 297.02 158.893 298.087 157.831C299.153 156.768 300.41 156.177 301.703 156.131C302.79 156.204 303.872 156.411 304.935 156.75C305.589 156.874 306.358 156.75 306.956 156.854C307.13 156.899 307.295 156.998 307.441 157.142Z" fill="url(#paint7_linear)"/>
<defs>
<linearGradient id="paint0_linear" x1="-92.9176" y1="17.3226" x2="440.669" y2="223.193" gradientUnits="userSpaceOnUse">
<stop stop-opacity="0"/>
<stop offset="0.99"/>
</linearGradient>
<linearGradient id="paint1_linear" x1="9319.91" y1="22342.3" x2="3665.95" y2="23421.1" gradientUnits="userSpaceOnUse">
<stop stop-opacity="0"/>
<stop offset="0.99"/>
</linearGradient>
<linearGradient id="paint2_linear" x1="67215.4" y1="64718.5" x2="5524.56" y2="32858.5" gradientUnits="userSpaceOnUse">
<stop stop-opacity="0"/>
<stop offset="0.99"/>
</linearGradient>
<linearGradient id="paint3_linear" x1="45299.1" y1="45327.3" x2="-2608.26" y2="44233.2" gradientUnits="userSpaceOnUse">
<stop stop-opacity="0"/>
<stop offset="0.99"/>
</linearGradient>
<linearGradient id="paint4_linear" x1="10233.9" y1="8953.34" x2="4248.56" y2="11870.6" gradientUnits="userSpaceOnUse">
<stop stop-opacity="0"/>
<stop offset="0.99"/>
</linearGradient>
<linearGradient id="paint5_linear" x1="10464.9" y1="13772.6" x2="8801.18" y2="9497.78" gradientUnits="userSpaceOnUse">
<stop stop-opacity="0"/>
<stop offset="0.99"/>
</linearGradient>
<linearGradient id="paint6_linear" x1="988.204" y1="1327.38" x2="997.815" y2="1326.18" gradientUnits="userSpaceOnUse">
<stop stop-opacity="0"/>
<stop offset="0.99"/>
</linearGradient>
<linearGradient id="paint7_linear" x1="2805.66" y1="1917.03" x2="2998.11" y2="2067.11" gradientUnits="userSpaceOnUse">
<stop stop-opacity="0"/>
<stop offset="0.99"/>
</linearGradient>
</defs>
</svg>
