<svg width="535" height="500" viewBox="0 0 535 500" fill="none" xmlns="http://www.w3.org/2000/svg">
<g clip-path="url(#clip0)">
<path opacity="0.18" d="M502.62 457.186C494.824 461.935 486.067 466.263 476.932 470.933C442.071 488.865 401.428 490.806 363.059 492.275L179.321 499.359C148.37 500.539 116.264 501.523 87.7696 489.311C71.3377 482.068 56.7906 471.081 45.2685 457.212C26.8309 435.516 14.5653 407.536 8.38044 379.425C-1.72837 333.436 1.48098 285.714 0.714378 238.622C0.272605 211.193 -1.53347 183.529 3.13113 156.493C7.79574 129.458 19.8405 102.515 41.7863 86.3279C71.2941 64.5791 109.936 66.7172 144.433 62.1392C180.815 57.312 211.999 39.3804 244.417 23.1802C278.382 6.23242 317.063 -2.8449 355.003 0.788652C393.359 4.48779 421.165 22.1177 442.656 54.4786C457.48 76.8099 466.493 102.551 468.864 129.327C471.631 160.809 465.109 192.79 469.734 224.075C478.83 285.373 529.036 335.167 534.61 396.898C537.533 429.128 523.371 444.58 502.62 457.186Z" fill="#2B5279"/>
<path opacity="0.41" d="M502.621 457.184C494.825 461.933 486.067 466.262 476.933 470.932C442.072 488.863 401.429 490.805 363.059 492.274L179.321 499.357C148.371 500.538 116.264 501.522 87.7699 489.309C71.3379 482.066 56.7908 471.08 45.2687 457.211L502.621 457.184Z" fill="#2B5279"/>
<path d="M260.555 102.212C260.321 108.141 261.127 114.017 261.387 119.986C261.587 122.193 261.371 124.419 260.75 126.545C259.295 130.637 255.345 133.195 251.655 135.451C249.316 136.881 246.652 138.928 246.977 141.682C247.202 142.721 247.754 143.658 248.55 144.353C249.347 145.048 250.345 145.464 251.395 145.539C253.501 145.634 255.599 145.22 257.515 144.332C261.435 143.045 265.028 140.904 268.039 138.062C273.925 131.883 274.12 122.321 273.678 113.755C273.301 106.567 272.691 98.6699 269.079 92.2686C263.258 82.0369 260.763 97.0827 260.555 102.212Z" fill="#2B5279"/>
<path d="M260.555 102.212C260.321 108.141 261.127 114.017 261.387 119.986C261.587 122.193 261.371 124.419 260.75 126.545C259.295 130.637 255.345 133.195 251.655 135.451C249.316 136.881 246.652 138.928 246.977 141.682C247.202 142.721 247.754 143.658 248.55 144.353C249.347 145.048 250.345 145.464 251.395 145.539C253.501 145.634 255.599 145.22 257.515 144.332C261.435 143.045 265.028 140.904 268.039 138.062C273.925 131.883 274.12 122.321 273.678 113.755C273.301 106.567 272.691 98.6699 269.079 92.2686C263.258 82.0369 260.763 97.0827 260.555 102.212Z" fill="url(#paint0_linear)"/>
<path d="M243.196 137.76C240.506 136.816 237.648 135.53 234.958 136.448C234.701 136.506 234.462 136.626 234.261 136.797C234.059 136.969 233.902 137.186 233.802 137.432C233.745 137.793 233.795 138.162 233.945 138.495L237.063 147.821C237.204 148.285 237.41 148.727 237.674 149.133C238.293 149.845 239.13 150.33 240.052 150.51C243.437 151.455 247.033 151.285 250.316 150.025C253.721 148.713 254.019 144.489 252.213 141.525C250.407 138.56 246.314 138.849 243.196 137.76Z" fill="url(#paint1_linear)"/>
<path d="M260.334 174.751C260.334 174.751 234.529 205.866 251.733 232.534C268.936 259.202 299.457 279.036 311.073 299.21C322.689 319.385 301.614 341.265 294.299 345.358C286.983 349.45 220.341 399.048 261.621 449.983H400.948C400.948 449.983 446.1 403.836 370.842 348.099C370.842 348.099 317.089 320.408 367.399 281.082C417.709 241.756 426.74 204.318 402.884 175.092L260.334 174.751Z" fill="#2B5279"/>
<path d="M260.334 174.751C260.334 174.751 234.529 205.866 251.733 232.534C268.936 259.202 299.457 279.036 311.073 299.21C322.689 319.385 301.614 341.265 294.299 345.358C286.983 349.45 220.341 399.048 261.621 449.983H400.948C400.948 449.983 446.1 403.836 370.842 348.099C370.842 348.099 317.089 320.408 367.399 281.082C417.709 241.756 426.74 204.318 402.884 175.092L260.334 174.751Z" fill="url(#paint2_linear)"/>
<path d="M410.784 162.014H249.511C245.865 162.014 242.91 164.998 242.91 168.678V168.691C242.91 172.371 245.865 175.355 249.511 175.355H410.784C414.429 175.355 417.384 172.371 417.384 168.691V168.678C417.384 164.998 414.429 162.014 410.784 162.014Z" fill="#2B5279"/>
<path d="M410.784 450.508H249.511C245.865 450.508 242.91 453.491 242.91 457.171V457.184C242.91 460.865 245.865 463.848 249.511 463.848H410.784C414.429 463.848 417.384 460.865 417.384 457.184V457.171C417.384 453.491 414.429 450.508 410.784 450.508Z" fill="#2B5279"/>
<path d="M410.784 162.014H249.511C245.865 162.014 242.91 164.998 242.91 168.678V168.691C242.91 172.371 245.865 175.355 249.511 175.355H410.784C414.429 175.355 417.384 172.371 417.384 168.691V168.678C417.384 164.998 414.429 162.014 410.784 162.014Z" fill="url(#paint3_linear)"/>
<path d="M410.784 450.508H249.511C245.865 450.508 242.91 453.491 242.91 457.171V457.184C242.91 460.865 245.865 463.848 249.511 463.848H410.784C414.429 463.848 417.384 460.865 417.384 457.184V457.171C417.384 453.491 414.429 450.508 410.784 450.508Z" fill="url(#paint4_linear)"/>
<path d="M389.189 379.135C365.58 366.411 287.464 364.299 272.639 375.2C286.477 356.704 305.486 345.817 305.486 345.817C324.196 334.011 345.479 344.269 345.479 344.269C345.479 344.269 372.544 358.252 389.189 379.135Z" fill="url(#paint5_linear)"/>
<path d="M388.695 448.96H271.937L267.429 444.867C254.097 421.833 257.372 401.488 266.129 385.301C268.049 381.8 270.22 378.446 272.626 375.266C287.451 364.299 365.567 366.411 389.176 379.201C391.592 382.212 393.765 385.414 395.673 388.777C396.934 390.999 398.037 393.309 398.973 395.69C410.615 425.374 388.695 448.96 388.695 448.96Z" fill="#2B5279"/>
<path d="M395.712 388.711C390.137 409.201 334.552 377.942 308.656 375.594C291.557 374.059 273.496 384.566 273.496 384.566C273.496 384.566 267.662 386.704 266.103 385.274C268.023 381.774 270.195 378.42 272.6 375.239C287.425 364.273 365.541 366.385 389.15 379.175C391.587 382.171 393.781 385.36 395.712 388.711V388.711Z" fill="url(#paint6_linear)"/>
<path d="M272.366 249.285C272.366 249.285 312.359 281.082 314.945 287.234C317.531 293.386 338.333 296.98 344.83 291.51C351.326 286.04 367.828 275.612 384.174 252.014C400.519 228.415 346.766 243.815 328.705 247.239C310.644 250.662 279.681 228.428 272.366 249.285Z" fill="#2B5279"/>
<path d="M272.366 249.285C272.366 249.285 287.854 259.543 301.614 256.46C315.374 253.378 324.404 244.497 343.323 246.202C362.241 247.908 381.159 256.119 387.188 247.239C393.217 238.358 386.759 231.157 367.828 233.557C348.897 235.958 317.518 236.286 302.472 235.262C287.425 234.239 259.905 236.64 272.366 249.285Z" fill="#2B5279"/>
<path d="M272.366 249.285C272.366 249.285 287.854 259.543 301.614 256.46C315.374 253.378 324.404 244.497 343.323 246.202C362.241 247.908 381.159 256.119 387.188 247.239C393.217 238.358 386.759 231.157 367.828 233.557C348.897 235.958 317.518 236.286 302.472 235.262C287.425 234.239 259.905 236.64 272.366 249.285Z" fill="url(#paint7_linear)"/>
<path d="M328.289 302.175C327.19 302.904 326.295 303.907 325.691 305.087C325.473 305.449 325.333 305.854 325.28 306.274C325.226 306.694 325.26 307.121 325.379 307.527C325.562 307.972 325.876 308.351 326.277 308.614C326.678 308.876 327.149 309.009 327.627 308.996C328.442 308.917 329.218 308.603 329.861 308.091C331.161 307.238 332.59 306.149 332.395 304.825C332.2 303.5 330.173 302.555 328.432 302.031" fill="#2B5279"/>
<path d="M335.54 314.309C335.102 314.421 334.691 314.622 334.331 314.899C334.149 315.056 334.045 315.227 334.188 315.397C334.483 315.62 334.848 315.727 335.215 315.699C335.563 315.678 335.907 315.616 336.241 315.515C336.839 315.332 337.54 315.109 337.398 314.846C337.255 314.584 336.384 314.387 335.591 314.282" fill="#2B5279"/>
<path d="M328.549 318.152C328.111 318.265 327.7 318.466 327.341 318.742C327.159 318.9 327.068 319.083 327.198 319.241C327.492 319.463 327.857 319.571 328.224 319.542C328.573 319.528 328.918 319.466 329.251 319.359C329.848 319.188 330.55 318.965 330.42 318.69C330.29 318.414 329.394 318.231 328.601 318.126" fill="#2B5279"/>
<path d="M339.658 336.057C339.095 335.815 338.491 335.686 337.878 335.677C337.541 335.677 337.242 335.756 337.164 336.005C337.172 336.211 337.228 336.412 337.327 336.592C337.426 336.772 337.566 336.926 337.735 337.041C338.074 337.3 338.451 337.504 338.853 337.645C339.593 337.933 340.425 338.222 340.672 337.92C340.919 337.618 340.308 336.753 339.723 336.057" fill="#2B5279"/>
<path d="M319.025 359.38C318.466 359.139 317.866 359.01 317.258 359C316.907 359 316.608 359.092 316.543 359.328C316.478 359.564 316.673 360.01 317.102 360.364C317.443 360.627 317.825 360.831 318.232 360.968C318.96 361.256 319.805 361.545 320.038 361.243C320.272 360.941 319.675 360.076 319.103 359.38" fill="#2B5279"/>
<path d="M263.414 94.0263C263.216 90.5385 264.127 87.0781 266.012 84.1488C267.897 81.2443 270.417 78.8162 273.379 77.0522C274.997 75.8744 276.961 75.2827 278.954 75.3732C280.604 75.5831 286.321 69.3129 287.659 70.3098C291.427 73.1301 290.674 83.5585 293.87 87.0347C294.708 91.698 295.229 96.4139 295.429 101.149L297.339 136.907C297.651 142.823 297.807 149.264 294.299 153.96C285.464 150.72 276.867 146.854 268.572 142.391C267.616 142.046 266.808 141.375 266.289 140.494C265.769 139.613 265.571 138.576 265.726 137.563C265.376 128.67 265.376 119.75 265.726 110.856C265.882 106.081 263.803 98.8011 263.414 94.0263Z" fill="#2B5279"/>
<path d="M263.414 94.0263C263.216 90.5385 264.127 87.0781 266.012 84.1488C267.897 81.2443 270.417 78.8162 273.379 77.0522C274.997 75.8744 276.961 75.2827 278.954 75.3732C280.604 75.5831 286.321 69.3129 287.659 70.3098C291.427 73.1301 290.674 83.5585 293.87 87.0347C294.708 91.698 295.229 96.4139 295.429 101.149L297.339 136.907C297.651 142.823 297.807 149.264 294.299 153.96C285.464 150.72 276.867 146.854 268.572 142.391C267.616 142.046 266.808 141.375 266.289 140.494C265.769 139.613 265.571 138.576 265.726 137.563C265.376 128.67 265.376 119.75 265.726 110.856C265.882 106.081 263.803 98.8011 263.414 94.0263Z" fill="url(#paint8_linear)"/>
<path d="M256.319 67.1748V68.1979C256.285 69.483 256.633 70.7489 257.32 71.8315C258.619 73.458 260.984 73.5236 262.998 73.2219C264.567 72.8196 266.196 72.7085 267.805 72.894C269.404 73.2482 271.171 79.8594 272.704 80.1217C275.497 80.6071 281.422 77.1441 283.345 75.3994C283.54 75.2289 281.305 70.1524 281.383 69.877C281.448 69.6098 281.448 69.3308 281.383 69.0637L278.265 54.4245C277.976 52.3412 277.225 50.3505 276.069 48.6004C275.149 47.4685 273.978 46.57 272.652 45.9769C268.247 43.9436 261.789 44.6651 258.567 48.7053C256.865 50.8435 256.891 54.5557 256.618 57.1792C256.27 60.4988 256.17 63.8401 256.319 67.1748V67.1748Z" fill="url(#paint9_linear)"/>
<path d="M279.291 169.557C270.69 175.158 260.867 178.464 251.161 181.704C248.77 182.504 245.964 183.265 243.846 181.979C242.648 181.13 241.701 179.97 241.104 178.621C237.284 171.302 227.734 169.124 232.425 162.342C234.412 159.456 245.678 149.999 248.458 147.913C253.967 143.781 259.736 139.531 266.506 138.39C269.686 137.924 272.915 137.924 276.095 138.39C282.241 139.137 297.742 141.525 296.443 149.487C295.143 157.449 285.515 165.464 279.291 169.557Z" fill="#3E3E54"/>
<path d="M281.89 99.9554C281.89 105.202 282.436 110.449 280.721 115.382C278.421 121.94 272.418 126.44 266.428 129.981C262.725 132.185 258.71 134.402 256.722 138.232C254.734 142.063 256.137 147.992 260.36 148.726C262 148.896 263.656 148.652 265.181 148.018C273.356 145.29 281.253 141.776 288.764 137.524C291.843 135.766 294.961 133.785 296.858 130.782C298.503 127.74 299.395 124.342 299.457 120.878C300.073 113.444 299.855 105.963 298.807 98.5781C297.597 92.7614 295.342 87.2176 292.155 82.2205C281.89 68.1848 281.89 92.2161 281.89 99.9554Z" fill="#2B5279"/>
<path d="M281.89 99.9554C281.89 105.202 282.436 110.449 280.721 115.382C278.421 121.94 272.418 126.44 266.428 129.981C262.725 132.185 258.71 134.402 256.722 138.232C254.734 142.063 256.137 147.992 260.36 148.726C262 148.896 263.656 148.652 265.181 148.018C273.356 145.29 281.253 141.776 288.764 137.524C291.843 135.766 294.961 133.785 296.858 130.782C298.503 127.74 299.395 124.342 299.457 120.878C300.073 113.444 299.855 105.963 298.807 98.5781C297.597 92.7614 295.342 87.2176 292.155 82.2205C281.89 68.1848 281.89 92.2161 281.89 99.9554Z" fill="url(#paint10_linear)"/>
<path d="M225.408 192.657L223.186 235.59C228.384 235.262 230.748 229.176 231.996 224.152C235.53 209.898 239.068 195.643 242.611 181.389C243.651 177.165 244.716 172.771 243.911 168.494C243.339 165.464 240.636 160.204 237.037 159.876C233.204 159.535 231.19 164.507 229.865 167.497C226.396 175.355 225.837 184.209 225.408 192.657Z" fill="url(#paint11_linear)"/>
<path d="M233.139 195.556L234.646 238.516C239.727 237.729 241.611 231.458 242.442 226.343C244.729 211.835 247.02 197.322 249.316 182.806C249.992 178.503 250.615 174.043 249.498 169.845C248.666 166.881 245.522 161.883 241.91 161.87C238.012 161.87 236.491 166.986 235.413 170.095C232.632 178.188 232.84 187.161 233.139 195.556Z" fill="url(#paint12_linear)"/>
<path d="M230.982 226.867L226.149 227.221C225.648 227.192 225.146 227.266 224.674 227.44C224.203 227.614 223.772 227.883 223.407 228.231C223.012 228.847 222.817 229.571 222.848 230.304C222.718 232.928 222.693 235.551 222.848 238.07C222.823 238.173 222.823 238.281 222.848 238.384C222.922 238.473 223.017 238.541 223.124 238.582C223.23 238.623 223.346 238.637 223.459 238.621C225.308 238.605 227.122 238.117 228.734 237.204C229.42 236.88 230.01 236.383 230.45 235.761C230.848 235.012 231.049 234.171 231.034 233.321C231.164 231.13 231.216 228.927 231.138 226.762L230.982 226.867Z" fill="#2B5279"/>
<path d="M230.878 235.695C230.868 235.51 230.815 235.331 230.722 235.171C230.6 235.042 230.438 234.96 230.262 234.939C230.087 234.917 229.91 234.958 229.761 235.053C229.473 235.261 229.218 235.513 229.007 235.8C228.172 236.795 227 237.44 225.72 237.611C224.416 237.58 223.113 237.659 221.822 237.847C220.891 238.214 220.046 238.772 219.34 239.486L215.13 243.159C214.143 244.012 213.064 245.127 213.298 246.425C213.482 246.994 213.825 247.496 214.287 247.871C214.748 248.246 215.308 248.478 215.897 248.537C218.025 248.772 220.179 248.503 222.186 247.75C224.058 247.244 225.898 246.622 227.695 245.888C228.638 245.548 229.479 244.97 230.138 244.209C231.58 242.254 231.099 237.991 230.878 235.695Z" fill="#3E3E54"/>
<path d="M242.585 227.444L237.713 227.825C237.21 227.797 236.707 227.872 236.233 228.045C235.76 228.219 235.326 228.487 234.958 228.835C234.575 229.455 234.385 230.177 234.413 230.907C234.27 233.531 234.257 236.154 234.348 238.673C234.349 238.785 234.371 238.897 234.413 239.001C234.486 239.086 234.579 239.151 234.683 239.19C234.788 239.229 234.9 239.24 235.01 239.224C236.864 239.216 238.685 238.728 240.298 237.807C240.984 237.489 241.575 236.996 242.014 236.377C242.397 235.623 242.593 234.786 242.585 233.938C242.733 231.734 242.772 229.548 242.702 227.379L242.585 227.444Z" fill="#2B5279"/>
<path d="M242.481 236.233C242.48 236.044 242.431 235.859 242.338 235.695C242.214 235.566 242.048 235.484 241.87 235.465C241.692 235.446 241.513 235.49 241.364 235.59C241.077 235.795 240.826 236.048 240.623 236.338C239.786 237.328 238.615 237.969 237.336 238.135C236.032 238.115 234.729 238.198 233.438 238.384C232.504 238.746 231.654 239.3 230.943 240.011L226.733 243.684C225.759 244.55 224.681 245.665 224.901 246.95C225.086 247.518 225.43 248.019 225.891 248.394C226.352 248.769 226.911 249.001 227.5 249.062C229.633 249.304 231.792 249.035 233.802 248.275C235.676 247.773 237.516 247.151 239.311 246.412C240.251 246.074 241.088 245.495 241.741 244.733C243.183 242.779 242.702 238.555 242.481 236.233Z" fill="#3E3E54"/>
<path d="M246.717 141.826C243.885 141.971 240.753 141.826 238.596 143.715C238.382 143.86 238.205 144.055 238.081 144.283C237.956 144.512 237.888 144.767 237.882 145.027C237.96 145.382 238.141 145.706 238.401 145.958L244.755 153.422C245.059 153.823 245.422 154.173 245.834 154.459C246.67 154.877 247.62 155.006 248.536 154.826C252.029 154.431 255.304 152.914 257.878 150.497C260.477 147.992 259.269 143.938 256.488 141.905C253.708 139.872 250.017 141.656 246.717 141.826Z" fill="url(#paint13_linear)"/>
<path d="M279.356 34.8532C288.27 35.6271 296.248 41.3201 301.653 48.5085C307.279 55.9855 311.775 65.9155 320.87 67.8831C324.963 68.7751 329.238 67.765 333.396 68.1979C337.273 68.6824 340.904 70.3758 343.782 73.0422C346.661 75.7085 348.644 79.2151 349.455 83.0732C350.43 88.1759 349.234 93.4491 349.754 98.6174C350.781 108.81 358.395 118.504 355.549 128.329C353.288 136.094 343.855 140.803 336.332 137.839C328.328 134.677 324.859 125.456 319.441 118.687C317.089 115.736 313.646 112.968 309.956 113.663C308.124 114.017 306.525 115.185 304.758 115.657C300.601 116.746 296.274 113.794 294.156 110.017C292.038 106.239 291.557 101.779 290.894 97.5024C289.933 91.4684 288.296 85.2769 284.398 80.6464C279.564 74.9797 271.703 72.1594 268.052 65.6531C265.895 61.7966 265.519 57.2448 263.557 53.3227C261.815 49.8728 258.476 48.0757 259.944 43.9961C262.4 37.2537 273.185 34.3285 279.356 34.8532Z" fill="#3E3E54"/>
<path d="M254.903 43.8518C254.692 44.9544 254.746 46.0919 255.061 47.1691C255.375 48.2463 255.94 49.2319 256.709 50.0433C258.271 51.6492 260.015 53.0627 261.906 54.254C263.792 55.4576 265.35 57.1167 266.441 59.0812C266.553 59.4128 266.74 59.7136 266.987 59.9601C267.115 60.0727 267.278 60.1347 267.448 60.1347C267.618 60.1347 267.781 60.0727 267.909 59.9601C268.035 59.785 268.099 59.5727 268.091 59.3567C268.351 55.6838 267.688 52.024 267.688 48.3511C267.688 45.8588 268.429 42.6844 266.948 40.4806C264.102 36.2174 256.046 39.6411 254.903 43.8518Z" fill="#3E3E54"/>
</g>
<defs>
<linearGradient id="paint0_linear" x1="283.761" y1="125.364" x2="236.383" y2="110.421" gradientUnits="userSpaceOnUse">
<stop offset="0.01"/>
<stop offset="0.13" stop-opacity="0.69"/>
<stop offset="1" stop-opacity="0"/>
</linearGradient>
<linearGradient id="paint1_linear" x1="232.755" y1="140.114" x2="252.713" y2="148.093" gradientUnits="userSpaceOnUse">
<stop stop-color="#E5C5D5"/>
<stop offset="0.42" stop-color="#EAD4D1"/>
<stop offset="1" stop-color="#F0E9CB"/>
</linearGradient>
<linearGradient id="paint2_linear" x1="245.821" y1="312.367" x2="415.487" y2="312.367" gradientUnits="userSpaceOnUse">
<stop offset="0.02" stop-color="white" stop-opacity="0"/>
<stop offset="0.32" stop-color="white" stop-opacity="0.39"/>
<stop offset="0.68" stop-color="white" stop-opacity="0.68"/>
<stop offset="1" stop-color="white"/>
</linearGradient>
<linearGradient id="paint3_linear" x1="44482.6" y1="2016.07" x2="44483.6" y2="1754.06" gradientUnits="userSpaceOnUse">
<stop offset="0.01"/>
<stop offset="0.13" stop-opacity="0.69"/>
<stop offset="1" stop-opacity="0"/>
</linearGradient>
<linearGradient id="paint4_linear" x1="44575.1" y1="4781.77" x2="44575.1" y2="5407.71" gradientUnits="userSpaceOnUse">
<stop offset="0.01"/>
<stop offset="0.13" stop-opacity="0.69"/>
<stop offset="1" stop-opacity="0"/>
</linearGradient>
<linearGradient id="paint5_linear" x1="32226" y1="11096.5" x2="32132.9" y2="12482.3" gradientUnits="userSpaceOnUse">
<stop offset="0.02" stop-color="white" stop-opacity="0"/>
<stop offset="0.32" stop-color="white" stop-opacity="0.39"/>
<stop offset="0.68" stop-color="white" stop-opacity="0.68"/>
<stop offset="1" stop-color="white"/>
</linearGradient>
<linearGradient id="paint6_linear" x1="35900.6" y1="8049.81" x2="35808.6" y2="10211.2" gradientUnits="userSpaceOnUse">
<stop offset="0.01"/>
<stop offset="0.13" stop-opacity="0.69"/>
<stop offset="1" stop-opacity="0"/>
</linearGradient>
<linearGradient id="paint7_linear" x1="32462.4" y1="5354.33" x2="32456.8" y2="4495.64" gradientUnits="userSpaceOnUse">
<stop offset="0.01"/>
<stop offset="0.13" stop-opacity="0.69"/>
<stop offset="1" stop-opacity="0"/>
</linearGradient>
<linearGradient id="paint8_linear" x1="8752.39" y1="8475.3" x2="7243.99" y2="8498.38" gradientUnits="userSpaceOnUse">
<stop offset="0.01"/>
<stop offset="0.13" stop-opacity="0.69"/>
<stop offset="1" stop-opacity="0"/>
</linearGradient>
<linearGradient id="paint9_linear" x1="5982.73" y1="2268.13" x2="6548.95" y2="2268.13" gradientUnits="userSpaceOnUse">
<stop stop-color="#E5C5D5"/>
<stop offset="0.42" stop-color="#EAD4D1"/>
<stop offset="1" stop-color="#F0E9CB"/>
</linearGradient>
<linearGradient id="paint10_linear" x1="11838.5" y1="7428.19" x2="9244.43" y2="7346.79" gradientUnits="userSpaceOnUse">
<stop offset="0.01"/>
<stop offset="0.13" stop-opacity="0.69"/>
<stop offset="1" stop-opacity="0"/>
</linearGradient>
<linearGradient id="paint11_linear" x1="-319.297" y1="22493.9" x2="-43.2279" y2="22517.8" gradientUnits="userSpaceOnUse">
<stop stop-color="#E5C5D5"/>
<stop offset="0.42" stop-color="#EAD4D1"/>
<stop offset="1" stop-color="#F0E9CB"/>
</linearGradient>
<linearGradient id="paint12_linear" x1="3546.66" y1="13033.7" x2="3772.89" y2="13033.7" gradientUnits="userSpaceOnUse">
<stop stop-color="#E5C5D5"/>
<stop offset="0.42" stop-color="#EAD4D1"/>
<stop offset="1" stop-color="#F0E9CB"/>
</linearGradient>
<linearGradient id="paint13_linear" x1="4462.72" y1="1929.84" x2="4817.01" y2="1929.84" gradientUnits="userSpaceOnUse">
<stop stop-color="#E5C5D5"/>
<stop offset="0.42" stop-color="#EAD4D1"/>
<stop offset="1" stop-color="#F0E9CB"/>
</linearGradient>
<clipPath id="clip0">
<rect width="535" height="500" fill="white"/>
</clipPath>
</defs>
</svg>
