<svg width="543" height="507" viewBox="0 0 543 507" fill="none" xmlns="http://www.w3.org/2000/svg">
<g clip-path="url(#clip0)">
<path opacity="0.18" d="M510.136 463.586C502.224 468.401 493.335 472.79 484.064 477.525C448.682 495.708 407.431 497.677 368.488 499.166L182.002 506.349C150.589 507.546 118.003 508.544 89.0822 496.16C72.4046 488.816 57.6399 477.675 45.9456 463.612C27.2323 441.612 14.7832 413.241 8.50592 384.737C-1.75404 338.103 1.5033 289.713 0.725232 241.962C0.276853 214.149 -1.55623 186.097 3.17813 158.683C7.91248 131.27 20.1374 103.949 42.4113 87.5356C72.3603 65.4822 111.58 67.6503 146.593 63.0082C183.519 58.1134 215.169 39.9307 248.072 23.5038C282.545 6.31872 321.804 -2.88568 360.312 0.798742C399.242 4.54967 427.463 22.4264 449.276 55.2404C464.321 77.8843 473.469 103.986 475.875 131.137C478.684 163.06 472.064 195.488 476.759 227.211C485.99 289.367 536.947 339.858 542.604 402.454C545.571 435.135 531.197 450.803 510.136 463.586Z" fill="#3E55E5"/>
<path opacity="0.41" d="M510.136 463.585C502.224 468.4 493.335 472.789 484.065 477.525C448.682 495.707 407.431 497.676 368.488 499.166L182.002 506.348C150.589 507.545 118.003 508.543 89.0823 496.16C72.4047 488.815 57.64 477.675 45.9456 463.612L510.136 463.585Z" fill="#3E55E5"/>
<path d="M264.451 103.643C264.214 109.655 265.031 115.614 265.295 121.666C265.499 123.904 265.279 126.161 264.649 128.316C263.172 132.466 259.163 135.06 255.418 137.348C253.044 138.798 250.34 140.873 250.67 143.666C250.898 144.719 251.458 145.669 252.267 146.374C253.075 147.079 254.088 147.501 255.154 147.576C257.291 147.672 259.421 147.253 261.365 146.353C265.344 145.047 268.991 142.877 272.047 139.995C278.021 133.73 278.219 124.033 277.771 115.348C277.388 108.059 276.768 100.051 273.102 93.5603C267.194 83.1854 264.662 98.4418 264.451 103.643Z" fill="#3E55E5"/>
<path d="M264.451 103.643C264.214 109.655 265.031 115.614 265.295 121.666C265.499 123.904 265.279 126.161 264.649 128.316C263.172 132.466 259.163 135.06 255.418 137.348C253.044 138.798 250.34 140.873 250.67 143.666C250.898 144.719 251.458 145.669 252.267 146.374C253.075 147.079 254.088 147.501 255.154 147.576C257.291 147.672 259.421 147.253 261.365 146.353C265.344 145.047 268.991 142.877 272.047 139.995C278.021 133.73 278.219 124.033 277.771 115.348C277.388 108.059 276.768 100.051 273.102 93.5603C267.194 83.1854 264.662 98.4418 264.451 103.643Z" fill="url(#paint0_linear)"/>
<path d="M246.833 139.689C244.103 138.731 241.201 137.427 238.472 138.359C238.211 138.417 237.968 138.539 237.764 138.712C237.559 138.886 237.4 139.107 237.298 139.356C237.241 139.722 237.291 140.097 237.443 140.434L240.608 149.891C240.751 150.361 240.96 150.809 241.228 151.221C241.857 151.943 242.705 152.435 243.641 152.617C247.077 153.575 250.727 153.403 254.059 152.125C257.515 150.795 257.818 146.512 255.985 143.506C254.152 140.5 249.998 140.793 246.833 139.689Z" fill="url(#paint1_linear)"/>
<path d="M264.227 177.198C264.227 177.198 238.036 208.748 255.497 235.79C272.957 262.831 303.935 282.942 315.725 303.399C327.514 323.856 306.124 346.043 298.699 350.193C291.275 354.343 223.636 404.634 265.533 456.283H406.943C406.943 456.283 452.77 409.489 376.388 352.973C376.388 352.973 321.831 324.894 372.893 285.017C423.955 245.14 433.121 207.179 408.908 177.544L264.227 177.198Z" fill="#3E55E5"/>
<path d="M264.227 177.198C264.227 177.198 238.036 208.748 255.497 235.79C272.957 262.831 303.935 282.942 315.725 303.399C327.514 323.856 306.124 346.043 298.699 350.193C291.275 354.343 223.636 404.634 265.533 456.283H406.943C406.943 456.283 452.77 409.489 376.388 352.973C376.388 352.973 321.831 324.894 372.893 285.017C423.955 245.14 433.121 207.179 408.908 177.544L264.227 177.198Z" fill="url(#paint2_linear)"/>
<path d="M416.926 164.283H253.242C249.542 164.283 246.542 167.308 246.542 171.039V171.053C246.542 174.785 249.542 177.81 253.242 177.81H416.926C420.626 177.81 423.626 174.785 423.626 171.053V171.039C423.626 167.308 420.626 164.283 416.926 164.283Z" fill="#3E55E5"/>
<path d="M416.926 456.815H253.242C249.542 456.815 246.542 459.84 246.542 463.572V463.585C246.542 467.317 249.542 470.342 253.242 470.342H416.926C420.626 470.342 423.626 467.317 423.626 463.585V463.572C423.626 459.84 420.626 456.815 416.926 456.815Z" fill="#3E55E5"/>
<path d="M416.926 164.283H253.242C249.542 164.283 246.542 167.308 246.542 171.039V171.053C246.542 174.785 249.542 177.81 253.242 177.81H416.926C420.626 177.81 423.626 174.785 423.626 171.053V171.039C423.626 167.308 420.626 164.283 416.926 164.283Z" fill="url(#paint3_linear)"/>
<path d="M416.926 456.815H253.242C249.542 456.815 246.542 459.84 246.542 463.572V463.585C246.542 467.317 249.542 470.342 253.242 470.342H416.926C420.626 470.342 423.626 467.317 423.626 463.585V463.572C423.626 459.84 420.626 456.815 416.926 456.815Z" fill="url(#paint4_linear)"/>
<path d="M395.009 384.443C371.047 371.541 291.763 369.4 276.716 380.453C290.761 361.698 310.054 350.658 310.054 350.658C329.044 338.687 350.645 349.089 350.645 349.089C350.645 349.089 378.115 363.268 395.009 384.443Z" fill="url(#paint5_linear)"/>
<path d="M394.507 455.245H276.004L271.427 451.095C257.897 427.738 261.22 407.108 270.109 390.695C272.057 387.145 274.261 383.744 276.703 380.519C291.75 369.4 371.034 371.541 394.995 384.51C397.448 387.563 399.653 390.81 401.589 394.22C402.869 396.473 403.989 398.815 404.939 401.229C416.755 431.33 394.507 455.245 394.507 455.245Z" fill="#3E55E5"/>
<path d="M401.629 394.153C395.971 414.929 339.555 383.233 313.272 380.852C295.917 379.296 277.586 389.95 277.586 389.95C277.586 389.95 271.665 392.118 270.082 390.668C272.031 387.118 274.235 383.718 276.676 380.493C291.723 369.373 371.007 371.514 394.969 384.483C397.443 387.521 399.67 390.755 401.629 394.153V394.153Z" fill="url(#paint6_linear)"/>
<path d="M276.439 252.775C276.439 252.775 317.03 285.017 319.655 291.255C322.279 297.494 343.392 301.138 349.986 295.592C356.58 290.045 373.328 279.471 389.918 255.542C406.508 231.613 351.951 247.228 333.62 250.7C315.289 254.172 283.863 231.626 276.439 252.775Z" fill="#3E55E5"/>
<path d="M276.439 252.775C276.439 252.775 292.158 263.177 306.124 260.051C320.09 256.925 329.255 247.92 348.456 249.649C367.657 251.378 386.859 259.705 392.978 250.7C399.097 241.695 392.543 234.393 373.328 236.827C354.114 239.261 322.266 239.594 306.994 238.556C291.723 237.519 263.792 239.953 276.439 252.775Z" fill="#3E55E5"/>
<path d="M276.439 252.775C276.439 252.775 292.158 263.177 306.124 260.051C320.09 256.925 329.255 247.92 348.456 249.649C367.657 251.378 386.859 259.705 392.978 250.7C399.097 241.695 392.543 234.393 373.328 236.827C354.114 239.261 322.266 239.594 306.994 238.556C291.723 237.519 263.792 239.953 276.439 252.775Z" fill="url(#paint7_linear)"/>
<path d="M333.198 306.405C332.082 307.145 331.174 308.162 330.561 309.358C330.34 309.726 330.198 310.135 330.144 310.561C330.089 310.987 330.123 311.42 330.244 311.832C330.431 312.284 330.748 312.668 331.156 312.934C331.563 313.2 332.041 313.335 332.526 313.322C333.354 313.242 334.141 312.924 334.794 312.404C336.113 311.54 337.563 310.436 337.366 309.092C337.168 307.749 335.11 306.791 333.343 306.259" fill="#3E55E5"/>
<path d="M340.557 318.709C340.112 318.823 339.695 319.027 339.33 319.307C339.146 319.467 339.04 319.64 339.185 319.813C339.485 320.039 339.855 320.147 340.227 320.119C340.58 320.097 340.93 320.035 341.269 319.933C341.876 319.746 342.588 319.52 342.443 319.254C342.298 318.988 341.414 318.789 340.61 318.682" fill="#3E55E5"/>
<path d="M333.462 322.606C333.018 322.721 332.6 322.924 332.236 323.205C332.051 323.364 331.959 323.55 332.091 323.71C332.39 323.936 332.76 324.045 333.132 324.016C333.486 324.001 333.837 323.939 334.174 323.83C334.781 323.657 335.493 323.431 335.361 323.151C335.229 322.872 334.319 322.686 333.515 322.58" fill="#3E55E5"/>
<path d="M344.737 340.762C344.166 340.517 343.552 340.386 342.931 340.376C342.588 340.376 342.285 340.456 342.205 340.709C342.213 340.918 342.27 341.122 342.371 341.304C342.472 341.487 342.614 341.643 342.786 341.76C343.13 342.022 343.512 342.229 343.92 342.372C344.671 342.664 345.515 342.957 345.766 342.651C346.017 342.345 345.397 341.467 344.803 340.762" fill="#3E55E5"/>
<path d="M323.795 364.412C323.228 364.167 322.619 364.036 322.002 364.026C321.646 364.026 321.343 364.119 321.277 364.358C321.211 364.598 321.409 365.05 321.844 365.409C322.19 365.675 322.578 365.882 322.991 366.021C323.73 366.314 324.587 366.606 324.824 366.3C325.061 365.994 324.455 365.117 323.875 364.412" fill="#3E55E5"/>
<path d="M267.353 95.3426C267.152 91.806 268.076 88.2972 269.99 85.3269C271.902 82.3817 274.461 79.9196 277.467 78.131C279.109 76.9366 281.103 76.3366 283.125 76.4284C284.8 76.6412 290.602 70.2833 291.961 71.2942C295.785 74.1539 295.02 84.7283 298.264 88.2531C299.115 92.9817 299.644 97.7636 299.847 102.565L301.785 138.824C302.102 144.823 302.26 151.354 298.699 156.116C289.733 152.83 281.007 148.91 272.588 144.384C271.617 144.034 270.798 143.354 270.271 142.461C269.743 141.567 269.542 140.517 269.7 139.489C269.344 130.471 269.344 121.426 269.7 112.408C269.858 107.566 267.748 100.184 267.353 95.3426Z" fill="#3E55E5"/>
<path d="M267.353 95.3426C267.152 91.806 268.076 88.2972 269.99 85.3269C271.902 82.3817 274.461 79.9196 277.467 78.131C279.109 76.9366 281.103 76.3366 283.125 76.4284C284.8 76.6412 290.602 70.2833 291.961 71.2942C295.785 74.1539 295.02 84.7283 298.264 88.2531C299.115 92.9817 299.644 97.7636 299.847 102.565L301.785 138.824C302.102 144.823 302.26 151.354 298.699 156.116C289.733 152.83 281.007 148.91 272.588 144.384C271.617 144.034 270.798 143.354 270.271 142.461C269.743 141.567 269.542 140.517 269.7 139.489C269.344 130.471 269.344 121.426 269.7 112.408C269.858 107.566 267.748 100.184 267.353 95.3426Z" fill="url(#paint8_linear)"/>
<path d="M260.152 68.1152V69.1527C260.117 70.4557 260.471 71.7393 261.167 72.8371C262.486 74.4864 264.886 74.5529 266.93 74.247C268.524 73.839 270.177 73.7264 271.81 73.9145C273.432 74.2736 275.225 80.9774 276.782 81.2434C279.617 81.7356 285.631 78.2241 287.582 76.455C287.78 76.2821 285.512 71.1345 285.591 70.8552C285.657 70.5843 285.657 70.3014 285.591 70.0305L282.426 55.1865C282.133 53.074 281.371 51.0554 280.197 49.2808C279.263 48.1331 278.075 47.222 276.729 46.6205C272.258 44.5588 265.704 45.2904 262.434 49.3872C260.706 51.5553 260.732 55.3195 260.455 57.9797C260.102 61.3457 260.001 64.7338 260.152 68.1152V68.1152Z" fill="url(#paint9_linear)"/>
<path d="M283.468 171.931C274.738 177.61 264.768 180.962 254.917 184.248C252.49 185.059 249.642 185.83 247.492 184.527C246.277 183.666 245.315 182.489 244.709 181.122C240.832 173.7 231.139 171.492 235.9 164.615C237.918 161.689 249.351 152.099 252.174 149.984C257.765 145.794 263.62 141.484 270.491 140.327C273.718 139.855 276.996 139.855 280.224 140.327C286.461 141.085 302.194 143.506 300.875 151.58C299.557 159.654 289.785 167.781 283.468 171.931Z" fill="#3E3E54"/>
<path d="M286.105 101.355C286.105 106.675 286.659 111.996 284.918 116.997C282.584 123.648 276.492 128.21 270.412 131.801C266.654 134.036 262.579 136.284 260.561 140.168C258.543 144.051 259.967 150.064 264.253 150.808C265.918 150.98 267.599 150.734 269.146 150.09C277.444 147.324 285.459 143.76 293.082 139.449C296.207 137.667 299.372 135.658 301.297 132.612C302.967 129.528 303.871 126.083 303.935 122.57C304.56 115.032 304.339 107.446 303.276 99.9582C302.047 94.0601 299.759 88.4386 296.523 83.3716C286.105 69.1394 286.105 93.5071 286.105 101.355Z" fill="#3E55E5"/>
<path d="M286.105 101.355C286.105 106.675 286.659 111.996 284.918 116.997C282.584 123.648 276.492 128.21 270.412 131.801C266.654 134.036 262.579 136.284 260.561 140.168C258.543 144.051 259.967 150.064 264.253 150.808C265.918 150.98 267.599 150.734 269.146 150.09C277.444 147.324 285.459 143.76 293.082 139.449C296.207 137.667 299.372 135.658 301.297 132.612C302.967 129.528 303.871 126.083 303.935 122.57C304.56 115.032 304.339 107.446 303.276 99.9582C302.047 94.0601 299.759 88.4386 296.523 83.3716C286.105 69.1394 286.105 93.5071 286.105 101.355Z" fill="url(#paint10_linear)"/>
<path d="M228.779 195.354L226.524 238.889C231.799 238.556 234.199 232.384 235.465 227.29C239.052 212.836 242.643 198.382 246.239 183.928C247.294 179.645 248.376 175.189 247.558 170.853C246.978 167.781 244.235 162.447 240.582 162.114C236.691 161.769 234.647 166.81 233.302 169.842C229.781 177.81 229.214 186.788 228.779 195.354Z" fill="url(#paint11_linear)"/>
<path d="M236.625 198.294L238.155 241.855C243.311 241.057 245.224 234.699 246.068 229.511C248.389 214.8 250.714 200.085 253.044 185.365C253.73 181.002 254.363 176.48 253.229 172.223C252.385 169.217 249.193 164.15 245.527 164.136C241.571 164.136 240.028 169.324 238.933 172.476C236.111 180.683 236.322 189.781 236.625 198.294Z" fill="url(#paint12_linear)"/>
<path d="M234.436 230.043L229.53 230.403C229.022 230.373 228.513 230.448 228.034 230.624C227.556 230.8 227.118 231.073 226.748 231.427C226.347 232.051 226.149 232.785 226.181 233.528C226.049 236.189 226.023 238.849 226.181 241.403C226.155 241.507 226.155 241.617 226.181 241.722C226.256 241.811 226.352 241.88 226.46 241.922C226.568 241.964 226.686 241.977 226.801 241.961C228.677 241.945 230.519 241.451 232.155 240.525C232.85 240.196 233.45 239.692 233.896 239.062C234.3 238.302 234.504 237.45 234.489 236.588C234.621 234.366 234.674 232.132 234.594 229.937L234.436 230.043Z" fill="#3E55E5"/>
<path d="M234.331 238.995C234.321 238.808 234.266 238.625 234.172 238.463C234.048 238.333 233.883 238.25 233.706 238.228C233.528 238.206 233.348 238.247 233.197 238.343C232.904 238.554 232.646 238.81 232.432 239.101C231.584 240.11 230.395 240.765 229.095 240.937C227.772 240.906 226.449 240.986 225.139 241.176C224.194 241.549 223.336 242.115 222.62 242.839L218.347 246.563C217.345 247.428 216.25 248.559 216.488 249.875C216.674 250.452 217.023 250.961 217.491 251.342C217.959 251.722 218.527 251.956 219.125 252.017C221.286 252.255 223.471 251.982 225.508 251.219C227.409 250.706 229.276 250.075 231.1 249.33C232.057 248.986 232.91 248.399 233.579 247.628C235.043 245.646 234.555 241.323 234.331 238.995Z" fill="#3E3E54"/>
<path d="M246.213 230.629L241.267 231.014C240.757 230.986 240.246 231.062 239.766 231.238C239.285 231.414 238.845 231.686 238.472 232.039C238.082 232.667 237.889 233.399 237.918 234.14C237.773 236.8 237.759 239.461 237.852 242.014C237.853 242.128 237.876 242.241 237.918 242.347C237.992 242.433 238.086 242.499 238.192 242.538C238.298 242.578 238.413 242.59 238.524 242.573C240.406 242.565 242.254 242.071 243.892 241.137C244.587 240.814 245.187 240.314 245.632 239.687C246.021 238.921 246.22 238.073 246.213 237.213C246.362 234.978 246.402 232.761 246.331 230.562L246.213 230.629Z" fill="#3E55E5"/>
<path d="M246.107 239.54C246.106 239.349 246.056 239.161 245.962 238.995C245.836 238.864 245.667 238.781 245.487 238.762C245.306 238.742 245.124 238.787 244.973 238.889C244.681 239.096 244.427 239.353 244.221 239.647C243.372 240.651 242.183 241.3 240.885 241.469C239.562 241.448 238.239 241.533 236.929 241.722C235.981 242.089 235.118 242.65 234.397 243.371L230.124 247.095C229.135 247.973 228.04 249.104 228.264 250.407C228.452 250.983 228.801 251.492 229.269 251.872C229.737 252.252 230.304 252.487 230.902 252.549C233.066 252.795 235.258 252.521 237.298 251.751C239.2 251.242 241.067 250.611 242.889 249.862C243.843 249.519 244.693 248.932 245.356 248.16C246.819 246.178 246.331 241.895 246.107 239.54Z" fill="#3E3E54"/>
<path d="M250.406 143.812C247.531 143.958 244.353 143.812 242.164 145.727C241.946 145.874 241.767 146.072 241.641 146.303C241.515 146.535 241.445 146.793 241.439 147.058C241.519 147.418 241.702 147.746 241.966 148.002L248.415 155.57C248.723 155.976 249.092 156.331 249.51 156.621C250.359 157.045 251.323 157.176 252.253 156.993C255.798 156.593 259.122 155.054 261.735 152.604C264.372 150.064 263.146 145.954 260.323 143.892C257.501 141.83 253.756 143.639 250.406 143.812Z" fill="url(#paint13_linear)"/>
<path d="M283.534 35.3412C292.58 36.1259 300.678 41.8986 306.164 49.1877C311.874 56.7693 316.437 66.8383 325.668 68.8335C329.822 69.7379 334.161 68.7138 338.381 69.1527C342.316 69.644 346.001 71.3611 348.923 74.0648C351.845 76.7685 353.858 80.3241 354.681 84.2362C355.67 89.4103 354.457 94.7574 354.984 99.9981C356.026 110.333 363.754 120.163 360.866 130.125C358.571 137.999 348.997 142.775 341.361 139.768C333.238 136.563 329.717 127.212 324.217 120.349C321.831 117.356 318.336 114.55 314.591 115.254C312.731 115.614 311.109 116.797 309.315 117.276C305.095 118.38 300.704 115.387 298.554 111.557C296.405 107.726 295.917 103.204 295.244 98.8675C294.268 92.7489 292.607 86.4708 288.65 81.7755C283.745 76.0294 275.766 73.1696 272.06 66.5723C269.871 62.6617 269.489 58.0462 267.498 54.0692C265.73 50.571 262.341 48.7487 263.831 44.6121C266.324 37.7753 277.27 34.8091 283.534 35.3412Z" fill="#3E3E54"/>
<path d="M258.715 44.4658C258.501 45.5838 258.556 46.7372 258.875 47.8295C259.194 48.9218 259.767 49.9211 260.548 50.7439C262.133 52.3723 263.903 53.8056 265.823 55.0136C267.736 56.2341 269.318 57.9164 270.425 59.9084C270.539 60.2446 270.729 60.5496 270.979 60.7996C271.109 60.9137 271.275 60.9766 271.447 60.9766C271.619 60.9766 271.786 60.9137 271.915 60.7996C272.043 60.622 272.108 60.4067 272.1 60.1877C272.364 56.4634 271.691 52.7524 271.691 49.0281C271.691 46.5008 272.443 43.282 270.94 41.0474C268.051 36.7245 259.875 40.1961 258.715 44.4658Z" fill="#3E3E54"/>
</g>
<defs>
<linearGradient id="paint0_linear" x1="288.004" y1="127.119" x2="239.926" y2="111.941" gradientUnits="userSpaceOnUse">
<stop offset="0.01"/>
<stop offset="0.13" stop-opacity="0.69"/>
<stop offset="1" stop-opacity="0"/>
</linearGradient>
<linearGradient id="paint1_linear" x1="236.236" y1="142.076" x2="256.486" y2="150.18" gradientUnits="userSpaceOnUse">
<stop stop-color="#E5C5D5"/>
<stop offset="0.42" stop-color="#EAD4D1"/>
<stop offset="1" stop-color="#F0E9CB"/>
</linearGradient>
<linearGradient id="paint2_linear" x1="249.496" y1="316.74" x2="421.7" y2="316.74" gradientUnits="userSpaceOnUse">
<stop offset="0.02" stop-color="white" stop-opacity="0"/>
<stop offset="0.32" stop-color="white" stop-opacity="0.39"/>
<stop offset="0.68" stop-color="white" stop-opacity="0.68"/>
<stop offset="1" stop-color="white"/>
</linearGradient>
<linearGradient id="paint3_linear" x1="45147.8" y1="2044.3" x2="45148.8" y2="1778.61" gradientUnits="userSpaceOnUse">
<stop offset="0.01"/>
<stop offset="0.13" stop-opacity="0.69"/>
<stop offset="1" stop-opacity="0"/>
</linearGradient>
<linearGradient id="paint4_linear" x1="45241.6" y1="4848.7" x2="45241.6" y2="5483.39" gradientUnits="userSpaceOnUse">
<stop offset="0.01"/>
<stop offset="0.13" stop-opacity="0.69"/>
<stop offset="1" stop-opacity="0"/>
</linearGradient>
<linearGradient id="paint5_linear" x1="32707.9" y1="11251.9" x2="32613.6" y2="12657" gradientUnits="userSpaceOnUse">
<stop offset="0.02" stop-color="white" stop-opacity="0"/>
<stop offset="0.32" stop-color="white" stop-opacity="0.39"/>
<stop offset="0.68" stop-color="white" stop-opacity="0.68"/>
<stop offset="1" stop-color="white"/>
</linearGradient>
<linearGradient id="paint6_linear" x1="36437.5" y1="8162.5" x2="36344.2" y2="10354.1" gradientUnits="userSpaceOnUse">
<stop offset="0.01"/>
<stop offset="0.13" stop-opacity="0.69"/>
<stop offset="1" stop-opacity="0"/>
</linearGradient>
<linearGradient id="paint7_linear" x1="32947.8" y1="5429.28" x2="32942.2" y2="4558.57" gradientUnits="userSpaceOnUse">
<stop offset="0.01"/>
<stop offset="0.13" stop-opacity="0.69"/>
<stop offset="1" stop-opacity="0"/>
</linearGradient>
<linearGradient id="paint8_linear" x1="8883.28" y1="8593.96" x2="7352.32" y2="8617.4" gradientUnits="userSpaceOnUse">
<stop offset="0.01"/>
<stop offset="0.13" stop-opacity="0.69"/>
<stop offset="1" stop-opacity="0"/>
</linearGradient>
<linearGradient id="paint9_linear" x1="6072.18" y1="2299.88" x2="6646.87" y2="2299.88" gradientUnits="userSpaceOnUse">
<stop stop-color="#E5C5D5"/>
<stop offset="0.42" stop-color="#EAD4D1"/>
<stop offset="1" stop-color="#F0E9CB"/>
</linearGradient>
<linearGradient id="paint10_linear" x1="12015.5" y1="7532.18" x2="9382.67" y2="7449.49" gradientUnits="userSpaceOnUse">
<stop offset="0.01"/>
<stop offset="0.13" stop-opacity="0.69"/>
<stop offset="1" stop-opacity="0"/>
</linearGradient>
<linearGradient id="paint11_linear" x1="-324.072" y1="22808.8" x2="-43.8785" y2="22833.1" gradientUnits="userSpaceOnUse">
<stop stop-color="#E5C5D5"/>
<stop offset="0.42" stop-color="#EAD4D1"/>
<stop offset="1" stop-color="#F0E9CB"/>
</linearGradient>
<linearGradient id="paint12_linear" x1="3599.69" y1="13216.2" x2="3829.3" y2="13216.2" gradientUnits="userSpaceOnUse">
<stop stop-color="#E5C5D5"/>
<stop offset="0.42" stop-color="#EAD4D1"/>
<stop offset="1" stop-color="#F0E9CB"/>
</linearGradient>
<linearGradient id="paint13_linear" x1="4529.45" y1="1956.86" x2="4889.03" y2="1956.86" gradientUnits="userSpaceOnUse">
<stop stop-color="#E5C5D5"/>
<stop offset="0.42" stop-color="#EAD4D1"/>
<stop offset="1" stop-color="#F0E9CB"/>
</linearGradient>
<clipPath id="clip0">
<rect width="543" height="507" fill="white"/>
</clipPath>
</defs>
</svg>
